<?xml version="1.0" encoding="utf-8"?>
<!-- Generator: Adobe Illustrator 21.1.0, SVG Export Plug-In . SVG Version: 6.00 Build 0)  -->
<svg version="1.1" id="Layer_1" xmlns="http://www.w3.org/2000/svg" xmlns:xlink="http://www.w3.org/1999/xlink" x="0px" y="0px"
	 viewBox="0 0 113.4 36.6" style="enable-background:new 0 0 113.4 36.6;" xml:space="preserve" width="170" height="70">
<style type="text/css">
	.st0{fill:#FFFFFF;}
</style>
<g>
	<g>
		<path class="st0" d="M54.2,22.9c0,1.1-0.1,2.2-0.5,3.2c-0.3,0.9-0.7,1.8-1.3,2.5c-0.6,0.7-1.3,1.3-2.1,1.7
			c-0.9,0.4-1.9,0.6-2.8,0.6c-0.7,0-1.3-0.1-2-0.3c-0.5-0.1-1-0.3-1.5-0.6V36l-3.5,0.6V15.7c0.7-0.2,1.6-0.4,2.7-0.6
			c1.1-0.2,2.2-0.3,3.3-0.3c1.1,0,2.2,0.2,3.2,0.6c0.9,0.3,1.8,0.9,2.4,1.6c0.7,0.7,1.2,1.6,1.6,2.5C54,20.6,54.2,21.7,54.2,22.9z
			 M50.6,22.9c0.1-1.3-0.3-2.6-1.1-3.7c-0.7-0.9-1.9-1.3-3.4-1.3c-0.3,0-0.7,0-1,0c-0.4,0-0.7,0.1-1.1,0.2v8.7
			c0.4,0.2,0.8,0.5,1.2,0.6c0.5,0.2,1.1,0.3,1.7,0.3c1.1,0.1,2.2-0.4,2.8-1.3C50.3,25.4,50.6,24.2,50.6,22.9
			C50.6,22.9,50.6,22.9,50.6,22.9z M56.2,22.9c0-1.2,0.2-2.4,0.6-3.5c0.4-0.9,0.9-1.8,1.6-2.5c0.6-0.7,1.4-1.2,2.3-1.5
			c0.8-0.3,1.7-0.5,2.7-0.5c2.1,0,3.8,0.7,4.9,2c1.2,1.3,1.7,3.3,1.7,5.8v0.7c0,0.2,0,0.4-0.1,0.7H59.8c0,1.1,0.5,2.1,1.3,2.8
			c0.8,0.7,1.9,1,3.3,1c0.8,0,1.6-0.1,2.3-0.2c0.6-0.1,1.1-0.3,1.7-0.5c0.1,0.6,0.3,1.6,0.5,2.9c-0.3,0.1-0.5,0.2-0.8,0.3
			c-0.4,0.1-0.8,0.2-1.2,0.3c-0.5,0.1-0.9,0.2-1.4,0.2c-0.5,0.1-1,0.1-1.5,0.1c-1.2,0-2.4-0.2-3.5-0.6c-0.9-0.4-1.8-0.9-2.5-1.7
			C57.4,27.8,57,27,56.7,26C56.3,25,56.2,24,56.2,22.9z M66.4,21.3c0-0.5-0.1-0.9-0.2-1.4c-0.1-0.4-0.3-0.8-0.6-1.1
			c-0.2-0.3-0.6-0.6-0.9-0.8c-0.9-0.4-1.9-0.3-2.8,0c-0.4,0.2-0.8,0.5-1.1,0.8c-0.3,0.3-0.5,0.7-0.7,1.1c-0.1,0.4-0.3,0.9-0.3,1.3
			H66.4L66.4,21.3z M81.6,18.4c-0.4-0.1-0.8-0.2-1.2-0.3c-0.6-0.1-1.2-0.1-1.8-0.1c-0.4,0-0.8,0-1.3,0.1c-0.3,0-0.6,0.1-0.9,0.2
			v12.2l-3.5,0.6V15.9c0.8-0.3,1.7-0.5,2.5-0.7c1.1-0.2,2.3-0.4,3.4-0.3c0.3,0,0.5,0,0.8,0.1c0.3,0,0.6,0.1,0.9,0.1
			c0.3,0,0.6,0.1,0.9,0.2l0.7,0.2C82.1,16.1,81.9,17.1,81.6,18.4z M96.9,30c-0.7,0.2-1.6,0.4-2.7,0.5c-1.2,0.2-2.4,0.3-3.6,0.3
			c-1.1,0-2.1-0.2-3.1-0.5c-0.8-0.3-1.5-0.8-2-1.5c-0.5-0.7-0.9-1.4-1.1-2.3c-0.2-0.9-0.3-1.9-0.3-2.8v-8.5h3.5v8
			c0,1.6,0.2,2.8,0.7,3.5c0.5,0.7,1.3,1.1,2.5,1.1c0.4,0,0.9,0,1.4-0.1c0.4,0,0.7-0.1,1.1-0.1V15.2h3.5L96.9,30L96.9,30z
			 M100.6,15.7c0.7-0.2,1.6-0.4,2.7-0.6c1.2-0.2,2.4-0.3,3.6-0.3c1.1,0,2.1,0.2,3.1,0.5c0.8,0.3,1.5,0.8,2,1.5
			c0.5,0.6,0.9,1.4,1.1,2.2c0.2,0.9,0.3,1.9,0.3,2.8v8.6l-3.5,0.6v-8.6c0-0.7,0-1.4-0.1-2.1c-0.1-0.5-0.3-1-0.5-1.4
			c-0.2-0.4-0.6-0.7-1-0.8c-0.5-0.2-1-0.2-1.5-0.2c-0.5,0-0.9,0-1.4,0.1c-0.5,0.1-0.8,0.1-1.1,0.1v12.3l-3.5,0.6L100.6,15.7
			L100.6,15.7L100.6,15.7z M37.8,22.8c0,1.1-0.2,2.2-0.5,3.3c-0.3,0.9-0.8,1.8-1.5,2.6c-0.7,0.7-1.5,1.2-2.3,1.6
			c-0.9,0.4-2,0.6-3,0.6c-1,0-2-0.2-3-0.6c-0.9-0.4-1.7-0.9-2.3-1.6c-0.7-0.7-1.2-1.6-1.5-2.6c-0.4-1.1-0.5-2.2-0.5-3.3
			c0-1.1,0.2-2.2,0.5-3.3c0.3-0.9,0.8-1.8,1.5-2.5c0.7-0.7,1.5-1.2,2.3-1.6c0.9-0.4,1.9-0.6,2.9-0.6c1,0,2,0.2,3,0.6
			c0.9,0.4,1.7,0.9,2.3,1.6c0.7,0.7,1.2,1.6,1.5,2.5C37.6,20.6,37.8,21.7,37.8,22.8z M34.2,22.8c0.1-1.3-0.3-2.5-1-3.6
			c-0.6-0.9-1.7-1.4-2.7-1.3c-1.1,0-2.1,0.4-2.7,1.3c-1.3,2.3-1.3,5,0,7.3c0.6,0.9,1.7,1.4,2.7,1.4c1.1,0,2.1-0.5,2.7-1.3
			C33.9,25.4,34.2,24.1,34.2,22.8z M2.1,15L0,17.2L5.8,23L0,28.8L2.1,31L8,25.1l2.1-2.1C10.1,23,2.1,15,2.1,15z"/>
		<path class="st0" d="M10.7,15l-2.1,2.1l5.8,5.8l-5.8,5.8l2.1,2.1l5.8-5.8l2.1-2.1C18.7,23,10.7,15,10.7,15z M7.3,4.4
			C7.3,5,7.2,5.7,7,6.3c-0.2,0.5-0.5,1-1,1.3C5.6,8,5.1,8.3,4.5,8.4c-0.7,0.2-1.3,0.3-2,0.3c-0.3,0-0.7,0-1.2,0
			C0.9,8.6,0.4,8.6,0,8.5V0.3c0.4-0.1,0.9-0.1,1.4-0.2c0.5,0,0.9,0,1.2,0c0.7,0,1.3,0.1,2,0.2C5.1,0.5,5.6,0.8,6,1.1
			c0.4,0.4,0.8,0.8,1,1.3C7.2,3.1,7.4,3.7,7.3,4.4z M1.9,7C2,7,2.1,7,2.2,7h0.4c0.8,0.1,1.5-0.2,2.1-0.7c0.5-0.5,0.7-1.2,0.6-1.9
			c0.1-0.7-0.2-1.4-0.6-2C4.2,1.9,3.4,1.7,2.7,1.7H2.3c-0.1,0-0.3,0-0.4,0C1.9,1.8,1.9,7,1.9,7z M8.9,0.2h1.9v8.4H8.9V0.2z
			 M16.8,1.7c-0.7-0.1-1.4,0.2-1.9,0.7c-0.4,0.6-0.6,1.3-0.6,2c0,0.4,0,0.8,0.1,1.1c0.1,0.3,0.2,0.6,0.4,0.9
			c0.2,0.2,0.4,0.4,0.7,0.6c0.3,0.1,0.7,0.2,1,0.2h0.5c0.1,0,0.3,0,0.4,0V4.2h1.9v4.1c-0.3,0.1-0.7,0.2-1.1,0.3
			c-0.6,0.1-1.3,0.2-1.9,0.1c-0.6,0-1.2-0.1-1.7-0.3c-0.5-0.2-0.9-0.5-1.3-0.8c-0.4-0.4-0.7-0.9-0.8-1.4c-0.2-0.6-0.3-1.2-0.3-1.8
			c0-0.6,0.1-1.3,0.3-1.9c0.2-0.5,0.5-1,0.9-1.4c0.4-0.4,0.8-0.7,1.3-0.8C15.4,0.1,16,0,16.5,0c0.4,0,0.7,0,1.1,0.1
			c0.3,0,0.6,0.1,0.8,0.2c0.2,0.1,0.4,0.1,0.6,0.2c0.1,0.1,0.3,0.1,0.3,0.2l-0.5,1.5c-0.3-0.1-0.6-0.3-0.9-0.4
			C17.5,1.7,17.2,1.7,16.8,1.7z M21.2,0.2h1.9v8.4h-1.9V0.2z M31.2,0.2v1.6h-2.5v6.8h-1.9V1.8h-2.5V0.2C24.3,0.2,31.2,0.2,31.2,0.2z
			 M37.1,8.6C37,8.3,36.9,8,36.8,7.7l-0.3-0.9h-3.3l-0.3,0.9c-0.1,0.3-0.2,0.6-0.3,0.9h-2c0.3-0.9,0.6-1.7,0.9-2.5s0.6-1.5,0.8-2.2
			c0.3-0.7,0.5-1.3,0.8-1.9s0.5-1.2,0.8-1.8h1.8C36,0.8,36.3,1.4,36.5,2c0.3,0.6,0.5,1.3,0.8,1.9c0.3,0.7,0.5,1.4,0.8,2.2
			c0.3,0.8,0.6,1.6,0.9,2.5C39.1,8.6,37.1,8.6,37.1,8.6z M34.8,2.1c0,0.1-0.1,0.3-0.2,0.5c-0.1,0.2-0.2,0.5-0.3,0.7L34,4.2
			c-0.1,0.3-0.3,0.7-0.4,1H36c-0.1-0.4-0.2-0.7-0.4-1.1c-0.1-0.4-0.2-0.6-0.3-0.9L35,2.6L34.8,2.1z M45.7,7v1.6h-5.6V0.2H42V7
			L45.7,7z M51.9,7.7c1.2,0,1.8-0.4,1.8-1.3c0-0.2-0.1-0.5-0.2-0.7c-0.1-0.2-0.3-0.3-0.4-0.5c-0.2-0.1-0.4-0.3-0.6-0.3
			c-0.2-0.1-0.5-0.2-0.8-0.3c-0.3-0.1-0.6-0.2-0.9-0.4c-0.3-0.1-0.5-0.3-0.7-0.5c-0.2-0.2-0.4-0.4-0.5-0.6c-0.4-0.9-0.1-2,0.6-2.6
			C50.8,0.2,51.6,0,52.3,0c0.5,0,0.9,0,1.4,0.2c0.3,0.1,0.6,0.2,0.9,0.4l-0.4,1c-0.2-0.1-0.5-0.2-0.8-0.3C53.1,1.1,52.7,1,52.3,1
			c-0.2,0-0.4,0-0.6,0.1c-0.2,0-0.4,0.1-0.5,0.2c-0.1,0.1-0.3,0.2-0.3,0.4c-0.1,0.2-0.1,0.3-0.1,0.5c0,0.2,0,0.4,0.1,0.6
			c0.1,0.2,0.2,0.3,0.4,0.4c0.2,0.1,0.4,0.2,0.6,0.3c0.2,0.1,0.4,0.2,0.7,0.3c0.4,0.1,0.7,0.3,1,0.4c0.3,0.1,0.6,0.3,0.8,0.5
			c0.2,0.2,0.4,0.4,0.5,0.7c0.1,0.3,0.2,0.7,0.2,1c0,0.7-0.3,1.3-0.8,1.7c-0.7,0.4-1.5,0.6-2.3,0.6c-0.6,0-1.1-0.1-1.6-0.2
			c-0.2,0-0.4-0.1-0.6-0.2c-0.1-0.1-0.3-0.1-0.4-0.2l0.4-1c0.3,0.1,0.6,0.3,0.8,0.4C50.9,7.7,51.4,7.8,51.9,7.7L51.9,7.7z M56,4.4
			c0-0.6,0.1-1.3,0.3-1.9c0.2-0.5,0.5-1,0.9-1.4c0.4-0.4,0.8-0.6,1.3-0.8C59,0.1,59.5,0,60,0c0.5,0,1,0.1,1.5,0.3
			c0.5,0.2,0.9,0.5,1.3,0.8c0.4,0.4,0.7,0.9,0.9,1.4c0.4,1.2,0.4,2.6,0,3.8c-0.2,0.5-0.5,1-0.9,1.4C62.5,8,62,8.3,61.6,8.5
			c-0.5,0.2-1,0.3-1.5,0.3c-0.5,0-1.1-0.1-1.5-0.3C58,8.3,57.6,8,57.2,7.7c-0.4-0.4-0.7-0.9-0.9-1.4C56.1,5.7,56,5,56,4.4z
			 M57.2,4.4c0,0.5,0.1,0.9,0.2,1.4c0.1,0.4,0.3,0.7,0.5,1.1c0.2,0.3,0.5,0.5,0.9,0.7c0.7,0.3,1.6,0.3,2.3,0
			c0.3-0.2,0.6-0.4,0.9-0.7c0.2-0.3,0.4-0.7,0.5-1.1c0.3-0.9,0.3-1.9,0-2.8c-0.1-0.4-0.3-0.7-0.5-1.1c-0.2-0.3-0.5-0.5-0.9-0.7
			c-0.7-0.3-1.6-0.3-2.3,0c-0.3,0.2-0.6,0.4-0.9,0.7c-0.2,0.3-0.4,0.7-0.5,1.1C57.3,3.5,57.2,3.9,57.2,4.4z M70.8,7.6v1h-5V0.2h1.2
			v7.4C66.9,7.6,70.8,7.6,70.8,7.6z M74.9,8.8c-0.5,0-1-0.1-1.4-0.2c-0.4-0.2-0.7-0.4-1-0.7c-0.3-0.3-0.5-0.7-0.6-1.1
			c-0.1-0.4-0.2-0.9-0.2-1.3V0.2h1.2v5.1c-0.1,0.7,0.1,1.3,0.6,1.8c0.4,0.4,0.9,0.6,1.4,0.6c0.3,0,0.6,0,0.8-0.1
			c0.2-0.1,0.5-0.2,0.6-0.4c0.2-0.2,0.3-0.5,0.4-0.7c0.1-0.3,0.1-0.7,0.1-1.1V0.2h1.2v5.3c0,0.4-0.1,0.9-0.2,1.3
			c-0.1,0.4-0.3,0.8-0.6,1.1c-0.3,0.3-0.6,0.5-1,0.7C75.9,8.7,75.4,8.8,74.9,8.8z M85.7,0.2v1H83v7.4h-1.2V1.2h-2.7v-1H85.7z
			 M86.9,0.2h1.2v8.4h-1.2V0.2z M89.8,4.4c0-0.6,0.1-1.3,0.3-1.9c0.2-0.5,0.5-1,0.9-1.4c0.4-0.4,0.8-0.6,1.3-0.8
			c0.5-0.2,1-0.3,1.5-0.3c0.5,0,1,0.1,1.5,0.3c0.5,0.2,0.9,0.5,1.3,0.8C97,1.5,97.3,2,97.5,2.5c0.4,1.2,0.4,2.6,0,3.8
			c-0.2,0.5-0.5,1-0.9,1.4c-0.4,0.4-0.8,0.6-1.3,0.8c-0.5,0.2-1,0.3-1.5,0.3c-0.5,0-1.1-0.1-1.5-0.3C91.8,8.3,91.4,8,91,7.7
			c-0.4-0.4-0.7-0.9-0.9-1.4C89.9,5.7,89.8,5,89.8,4.4z M91.1,4.4c0,0.5,0.1,0.9,0.2,1.4c0.1,0.4,0.3,0.7,0.5,1.1
			c0.2,0.3,0.5,0.5,0.9,0.7c0.4,0.2,0.8,0.2,1.2,0.2c0.4,0,0.8-0.1,1.1-0.2c0.3-0.2,0.6-0.4,0.9-0.7c0.2-0.3,0.4-0.7,0.5-1.1
			c0.3-0.9,0.3-1.9,0-2.8c-0.1-0.4-0.3-0.7-0.5-1.1c-0.2-0.3-0.5-0.5-0.9-0.7C94.6,1.1,94.2,1,93.8,1c-0.4,0-0.8,0.1-1.2,0.2
			c-0.3,0.2-0.6,0.4-0.9,0.7c-0.2,0.3-0.4,0.7-0.5,1.1C91.1,3.5,91.1,3.9,91.1,4.4z M105.3,8.6c-0.4-0.7-0.9-1.4-1.4-2.2
			c-0.3-0.4-0.5-0.8-0.8-1.2c-0.3-0.4-0.6-0.8-0.8-1.2c-0.3-0.4-0.5-0.7-0.8-1.1s-0.5-0.6-0.7-0.9v6.5h-1.1V0.2h0.9
			c0.4,0.4,0.8,0.9,1.2,1.4c0.4,0.5,0.9,1.1,1.3,1.7c0.4,0.6,0.8,1.1,1.2,1.7c0.4,0.5,0.7,1.1,0.9,1.5V0.2h1.2v8.4
			C106.3,8.6,105.3,8.6,105.3,8.6z M110.3,7.7c1.2,0,1.8-0.4,1.8-1.3c0-0.2-0.1-0.5-0.2-0.7c-0.1-0.2-0.3-0.3-0.4-0.5
			c-0.2-0.1-0.4-0.3-0.6-0.3c-0.2-0.1-0.5-0.2-0.8-0.3c-0.3-0.1-0.6-0.2-0.9-0.4c-0.3-0.1-0.5-0.3-0.7-0.5c-0.2-0.2-0.4-0.4-0.5-0.6
			c-0.4-0.9-0.1-2,0.6-2.6c0.6-0.4,1.3-0.7,2.1-0.6c0.5,0,0.9,0,1.4,0.2c0.3,0.1,0.6,0.2,0.9,0.4l-0.4,1c-0.2-0.1-0.5-0.2-0.8-0.3
			c-0.4-0.1-0.8-0.2-1.2-0.2c-0.2,0-0.4,0-0.6,0.1c-0.2,0-0.4,0.1-0.5,0.2c-0.1,0.1-0.3,0.2-0.3,0.4c-0.1,0.2-0.1,0.3-0.1,0.5
			c0,0.2,0,0.4,0.1,0.6c0.1,0.2,0.2,0.3,0.4,0.4c0.2,0.1,0.4,0.2,0.6,0.3c0.2,0.1,0.5,0.2,0.7,0.3c0.4,0.1,0.7,0.3,1,0.4
			c0.3,0.1,0.6,0.3,0.8,0.5c0.2,0.2,0.4,0.4,0.5,0.7c0.1,0.3,0.2,0.7,0.2,1c0,0.7-0.3,1.3-0.8,1.7c-0.7,0.4-1.5,0.6-2.3,0.6
			c-0.3,0-0.6,0-0.9-0.1c-0.3,0-0.5-0.1-0.7-0.2c-0.2,0-0.4-0.1-0.6-0.2c-0.1-0.1-0.3-0.1-0.4-0.2l0.4-1c0.3,0.1,0.6,0.3,0.8,0.4
			C109.4,7.7,109.9,7.8,110.3,7.7L110.3,7.7z"/>
	</g>
</g>
</svg>
