<?xml version="1.0" encoding="utf-8"?>
<!-- Generator: Adobe Illustrator 23.1.1, SVG Export Plug-In . SVG Version: 6.00 Build 0)  -->
<svg version="1.1" id="Ebene_1" xmlns="http://www.w3.org/2000/svg" xmlns:xlink="http://www.w3.org/1999/xlink" x="0px" y="0px"
	 viewBox="0 0 131 160.6" style="enable-background:new 0 0 131 160.6;" xml:space="preserve">
<style type="text/css">
	.st0{fill:#E20613;stroke:#E20613;stroke-width:2;stroke-miterlimit:10;}
	.st1{fill:#1A171B;}
</style>
<title>pi-lar-logo</title>
<g>
	<path class="st0" d="M100.6,88.2l18.6-87.2h10.5l-18.3,85.8c-0.3,1.6-0.4,3.1-0.5,4.7c0,6.4,4,6.8,7.3,6.8c0.8,0,1.6,0,2.3-0.2
		l-2,9.3c-1.2,0.2-2.4,0.3-3.6,0.3c-6,0-15-2.3-15-14.1C100,91.9,100.2,90,100.6,88.2L100.6,88.2z"/>
	<path class="st0" d="M99.9,1.2c-5.9,0-13.2,0-13.7,0L10.6,1c-1.5,0-3,0-4.5,0.2C1.8,2,0.3,4.7,1.3,10l2,10.2l9.2,0.1l-1.2-6.2
		c-0.3-1.8,0.2-4.1,1.7-4.3c1-0.1,2.1-0.1,3.1,0h13.5c0.8,0.2,1.3,1,1.3,1.9c0,1.5-0.2,3.1-0.5,4.6l-0.4,2L15,94.9
		c-0.1,0.8-0.3,1.6-0.5,2.4c-0.6,1.4-2,2.1-4,2.1l-6.9,0L2,107.9h11.4c5.7,0,9.3-2.1,11.1-6.4c0.4-1,0.7-2.1,0.9-3.3l15.1-76.6
		l1.2-10.5c0.1-0.5,0.2-1,0.3-1.5l27.7,0.1c0.6,0.4,1,1.1,0.9,1.9c0,1.5-0.2,3.1-0.5,4.6L54.2,97.8c-0.3,1.1-0.4,2.3-0.5,3.5
		c0,4.5,2.6,6.6,8,6.6h13.1l1.7-8.4L67.7,99c-1.8,0-2.9-0.8-2.9-2.3c0.1-0.9,0.3-1.7,0.5-2.6l16.1-82.9c0.1-0.5,0.2-0.9,0.3-1.4
		l16.5,0L99.9,1.2L99.9,1.2z"/>
</g>
<path class="st1" d="M0.6,124.5h4.5v2c0,0.6,0,1.2-0.1,1.8h0.1c1.8-2.9,5.1-4.6,8.5-4.4c6.8,0,11.1,5.1,11.1,12.6
	c0,7.6-4.9,12.6-11.5,12.6c-3.1,0.1-6-1.4-7.8-3.9H5.4c0.1,0.7,0.1,1.4,0.1,2.1v10.8H0.6V124.5z M12.5,145.1c4,0,7.3-3.1,7.3-8.6
	c0-5.2-2.9-8.6-7.2-8.6c-3.8,0-7.3,2.5-7.3,8.6C5.3,140.8,7.8,145.1,12.5,145.1z"/>
<path class="st1" d="M29.5,115h4.9v4.7h-4.9V115z M29.6,124.5h4.9v24h-4.9L29.6,124.5z"/>
<path class="st1" d="M41.6,132.9h14.6v4.1H41.6V132.9z"/>
<path class="st1" d="M63.1,115H68v26.1c0,2.9,1.2,3.4,2.7,3.4c0.3,0,0.6,0,0.9,0v4.1c-0.5,0.1-1.1,0.1-1.6,0.1
	c-2.8,0-6.8-0.7-6.8-6.7V115z"/>
<path class="st1" d="M93.7,134h1.1v-0.4c0-3.9-2.4-5.3-5.6-5.3c-2.5,0.1-5,0.9-7.1,2.3l-2-3.4c2.8-1.9,6.1-2.9,9.5-2.8
	c6.4,0,10,3.3,10,9.4V149h-4.5v-2.3c0-0.6,0-1.3,0.1-1.9h-0.1c-1.6,3-4.7,4.9-8.1,4.7c-4.4,0-8.6-2.5-8.6-7.3
	C78.4,134.3,89.4,134,93.7,134z M88.1,145.8c3.9-0.3,6.9-3.7,6.8-7.6v-0.8h-1.3c-3.7,0-10.3,0.2-10.3,4.6
	C83.3,143.9,84.9,145.8,88.1,145.8z"/>
<path class="st1" d="M106.5,124.5h4.7v4.2c0,0.6,0,1.2-0.1,1.8h0.1c1-3.6,4.2-6.2,8-6.3c0.4,0,0.8,0,1.3,0.1v4.5
	c-0.5-0.1-0.9-0.1-1.4-0.1c-3.4,0.1-6.2,2.4-7.1,5.6c-0.4,1.4-0.6,2.8-0.6,4.3v9.8h-4.8V124.5z"/>
</svg>
