<?xml version="1.0" encoding="utf-8"?>
<!-- Generator: Adobe Illustrator 23.0.2, SVG Export Plug-In . SVG Version: 6.00 Build 0)  -->
<svg version="1.1" id="Ebene_1" xmlns="http://www.w3.org/2000/svg" xmlns:xlink="http://www.w3.org/1999/xlink" x="0px" y="0px"
	 viewBox="0 0 126 61" style="enable-background:new 0 0 126 61;" xml:space="preserve">
<style type="text/css">
	.st0{fill:#18255A;}
	.st1{fill:#0086CB;}
</style>
<g id="g6717" transform="translate(-393.873 3031.282)">
	<path id="path3543" class="st0" d="M397.3-3007.4v11.9H395v-33.8h8.1c5.5,0,8.1,1.7,8.1,9.4v2.9c0,7.3-2.6,9.5-8.1,9.5H397.3z
		 M403.1-3009.5c4.7,0,5.9-2,5.9-7.4v-2.8c0-5.4-0.9-7.6-5.9-7.6h-5.8v17.7L403.1-3009.5z"/>
	<path id="path3547" class="st0" d="M430.4-3002.5c0,4.6-2.4,7.1-7.6,7.1c-5.5,0-8.1-2.5-8.1-9.5v-6.9c0-7,2.6-9.7,8.1-9.7
		c5.9,0,7.9,2.9,7.9,9.7v3.8h-13.9v2.9c0,5.2,1.2,7.7,6,7.7c4.7,0,5.6-2.1,5.6-5.1L430.4-3002.5L430.4-3002.5z M428.8-3010v-1.7
		c0-4.9-0.9-7.9-5.9-7.9c-4.7,0-6,2.4-6,7.7v1.9H428.8z"/>
	<path id="path3551" class="st0" d="M437.6-3021.3l0.1,3.1c1.4-2.4,4.1-3.6,6.8-3v2.1c-3.9-0.6-6.7,1.9-6.7,5.5l0,18.2h-2.2v-25.8
		L437.6-3021.3z"/>
	<path id="path3555" class="st0" d="M448.9-3029.3v33.8h2.2v-17h12.1v-2.1h-12.1v-12.6h13.7v-2.1L448.9-3029.3z"/>
	<path id="path3559" class="st0" d="M482.2-2995.5l0-3.4c-1.7,2.8-4.1,3.6-7.5,3.6c-4.2,0-7.1-1.9-7.1-6.8c0-6.3,5.5-7.7,14.4-7
		v-3.7c0-4.5-1.5-6.5-5.6-6.5c-3.6,0-5.6,1.1-5.6,6h-2.1c0-5.4,2.1-8,7.7-8c5.2,0,7.7,2.4,7.7,8.4v17.2L482.2-2995.5L482.2-2995.5z
		 M481.9-3006.9c-8.4-0.8-12.2,0.4-12.2,4.9c0,3.3,1.9,4.7,5.7,4.7c3.4,0.2,6.3-2.3,6.5-5.7c0-0.2,0-0.4,0-0.6V-3006.9L481.9-3006.9
		z"/>
	<path id="path3563" class="st0" d="M505-3003.1c0,5.4-2.6,7.9-8,7.9c-5.5,0-8.1-2.7-8.1-9.7v-6.8c0-7.1,2.8-9.6,8.3-9.6
		c5.6,0,7.5,2.5,7.7,7.3h-2.1c-0.2-3.1-1.2-5.3-5.6-5.3c-4.6,0-6.1,2.1-6.1,7.5v6.6c0,5.2,1,7.7,5.9,7.7s5.8-2.1,5.9-5.8H505z"/>
	<path id="path3567" class="st0" d="M509.7-3027.1l2.2-0.3v6h5.3v2.1h-5.3v16.5c0,4.8,1.4,5.7,5.6,5.4v1.9c-5.9,0.6-7.8-1.6-7.8-7.3
		L509.7-3027.1z"/>
	<path id="path3569" class="st1" d="M410.4-2972.6h2.4v-13.5h-2.4V-2972.6z"/>
	<path id="path3573" class="st1" d="M421.4-2986.1v3.2l0.3,5.7l-4-8.9h-2.4v13.5h2.4v-3.4l-0.2-5.1l4,8.5h2.3v-13.5L421.4-2986.1z"
		/>
	<path id="path3577" class="st1" d="M432.3-2986.1v3.2l0.3,5.7l-4-8.9h-2.4v13.5h2.4v-3.4l-0.2-5.1l4,8.5h2.3v-13.5L432.3-2986.1z"
		/>
	<path id="path3581" class="st1" d="M436.9-2976.5v-5.7c0-2.9,1.2-4,4.5-4s4.6,1.2,4.6,4v5.7c0,2.8-1.4,4-4.6,4
		S436.9-2973.7,436.9-2976.5 M443.6-2976.6v-5.5c0-1.2-0.3-2-2.2-2c-1.7,0-2.1,0.8-2.1,2v5.5c0,1.3,0.3,2,2.1,2
		S443.6-2975.3,443.6-2976.6"/>
	<path id="path3585" class="st1" d="M454.1-2986.1l-1.2,4.1l-1.2,6.3l-1.3-6.3l-1.2-4.1h-2.5l3.6,13.5h2.5l3.6-13.5L454.1-2986.1z"
		/>
	<path id="path3589" class="st1" d="M459.8-2986.1l-3.7,13.5h2.5l0.7-2.4h3.4l0.7,2.4h2.5l-3.7-13.5H459.8z M460.9-2982.3l1.1,5
		h-2.2L460.9-2982.3L460.9-2982.3z"/>
	<path id="path3593" class="st1" d="M465-2986v2.2h2.8v11.3h2.4v-11.3h2.8v-2.2H465z"/>
	<path id="path3595" class="st1" d="M474.3-2972.6h2.4v-13.5h-2.4V-2972.6z"/>
	<path id="path3599" class="st1" d="M479-2976.5v-5.7c0-2.9,1.2-4,4.5-4s4.6,1.2,4.6,4v5.7c0,2.8-1.4,4-4.6,4S479-2973.7,479-2976.5
		 M485.7-2976.6v-5.5c0-1.2-0.3-2-2.2-2c-1.7,0-2.1,0.8-2.1,2v5.5c0,1.3,0.3,2,2.1,2S485.7-2975.3,485.7-2976.6"/>
	<path id="path3603" class="st1" d="M496.5-2986.1v3.2l0.3,5.7l-4-8.9h-2.4v13.5h2.4v-3.4l-0.2-5.1l4,8.5h2.3v-13.5L496.5-2986.1
		L496.5-2986.1z"/>
	<path id="path3607" class="st0" d="M399.5-2982.4c0,0.5-0.4,1-1,1h-2.7c-0.5,0-1-0.4-1-1v-2.7c0-0.5,0.4-1,1-1h2.7c0.5,0,1,0.4,1,1
		V-2982.4z"/>
	<path id="path3611" class="st0" d="M406.1-2982.4c0,0.5-0.4,1-1,1h-2.7c-0.5,0-1-0.4-1-1v-2.7c0-0.5,0.4-1,1-1h2.7c0.5,0,1,0.4,1,1
		V-2982.4z"/>
	<path id="path3615" class="st0" d="M399.5-2973.8c0,0.5-0.4,1-1,1h-2.7c-0.5,0-1-0.4-1-1v-2.7c0-0.5,0.4-1,1-1h2.7c0.5,0,1,0.4,1,1
		V-2973.8z"/>
	<path id="path3619" class="st0" d="M406.1-2973.8c0,0.5-0.4,1-1,1h-2.7c-0.5,0-1-0.4-1-1v-2.7c0-0.5,0.4-1,1-1h2.7c0.5,0,1,0.4,1,1
		V-2973.8z"/>
</g>
</svg>
