<?xml version="1.0" encoding="UTF-8" standalone="no"?>
<svg
   xmlns:dc="http://purl.org/dc/elements/1.1/"
   xmlns:cc="http://creativecommons.org/ns#"
   xmlns:rdf="http://www.w3.org/1999/02/22-rdf-syntax-ns#"
   xmlns:svg="http://www.w3.org/2000/svg"
   xmlns="http://www.w3.org/2000/svg"
   viewBox="0 0 544.45331 102.05333"
   height="102.05333"
   width="544.45331"
   xml:space="preserve"
   id="svg2"
   version="1.1"><metadata
     id="metadata8"><rdf:RDF><cc:Work
         rdf:about=""><dc:format>image/svg+xml</dc:format><dc:type
           rdf:resource="http://purl.org/dc/dcmitype/StillImage" /></cc:Work></rdf:RDF></metadata><defs
     id="defs6" /><g
     transform="matrix(1.3333333,0,0,-1.3333333,0,102.05333)"
     id="g10"><g
       transform="scale(0.1)"
       id="g12"><path
         id="path14"
         style="fill:#297ebd;fill-opacity:1;fill-rule:nonzero;stroke:none"
         d="m 4038.93,356.035 c 0,-25.273 -16.85,-40.449 -41.45,-40.449 -24.62,0 -41.46,15.176 -41.46,40.449 0,25.274 16.84,40.43 41.46,40.43 24.6,0 41.45,-15.156 41.45,-40.43 z m -127.4,0 c 0,-50.547 33.71,-90.996 85.95,-90.996 52.22,0 85.92,40.449 85.92,90.996 0,50.547 -33.7,90.996 -85.92,90.996 -52.24,0 -85.95,-40.449 -85.95,-90.996 z m 44.49,-161.055 c 0,10.45 5.39,19.883 12.47,24.942 l -35.05,33.359 c -16.18,-15.84 -21.91,-39.101 -21.91,-58.301 0,-50.566 33.71,-90.996 85.95,-90.996 52.22,0 85.92,40.43 85.92,90.996 0,19.2 -5.72,42.461 -21.89,58.301 l -35.06,-33.359 c 6.75,-5.742 12.48,-13.828 12.48,-24.942 0,-25.292 -16.85,-40.449 -41.45,-40.449 -24.62,0 -41.46,15.157 -41.46,40.449 z m 60.92,-141.4839 c 0,-17.8711 14.35,-32.2266 32.23,-32.2266 17.86,0 32.22,14.3555 32.22,32.2266 0,17.8516 -14.36,32.2266 -32.22,32.2266 -17.88,0 -32.23,-14.375 -32.23,-32.2266 z M 3911.53,671.953 c 0,-24.277 8.43,-40.117 29.31,-51.894 -19.86,-8.77 -29.31,-27.637 -29.31,-50.547 0,-24.629 13.49,-41.133 26.29,-47.871 v -0.684 h -22.24 v -48.516 h 163.79 v 50.547 h -81.56 c -21.23,0 -41.79,4.043 -41.79,30.352 0,23.242 24.59,22.558 36.74,22.558 h 86.61 v 50.567 h -86.61 c -20.23,0 -36.74,7.402 -36.74,30.664 0,16.504 12.81,22.246 27.97,22.246 h 95.38 v 50.547 h -96.73 c -39.77,0 -71.11,-13.477 -71.11,-57.969" /><path
         id="path16"
         style="fill:#297ebd;fill-opacity:1;fill-rule:nonzero;stroke:none"
         d="m 414.695,568.867 c -25.73,32.91 -77.175,48.34 -116.277,48.34 -45.273,0 -108.047,-20.566 -108.047,-75.078 0,-132.715 335.457,-47.324 335.457,-302.441 C 525.828,77.1484 395.145,0 244.902,0 151.262,0 68.9453,27.7734 0,91.5625 L 114.219,217.051 c 32.929,-43.203 86.445,-68.926 139.941,-68.926 52.481,0 111.145,24.707 111.145,76.133 0,133.73 -341.6448,61.719 -341.6448,304.492 0,155.332 134.8088,236.602 277.8438,236.602 82.324,0 161.562,-21.602 223.301,-76.133 L 414.695,568.867" /><path
         id="path18"
         style="fill:#297ebd;fill-opacity:1;fill-rule:nonzero;stroke:none"
         d="m 1732.54,568.867 c -25.72,32.91 -77.17,48.34 -116.27,48.34 -45.28,0 -108.06,-20.566 -108.06,-75.078 0,-132.715 335.46,-47.324 335.46,-302.441 C 1843.67,77.1484 1712.99,0 1562.75,0 1469.1,0 1386.79,27.7734 1317.84,91.5625 l 114.23,125.4885 c 32.93,-43.203 86.44,-68.926 139.94,-68.926 52.48,0 111.13,24.707 111.13,76.133 0,133.73 -341.64,61.719 -341.64,304.492 0,155.332 134.81,236.602 277.85,236.602 82.33,0 161.56,-21.602 223.3,-76.133 L 1732.54,568.867" /><path
         id="path20"
         style="fill:#297ebd;fill-opacity:1;fill-rule:nonzero;stroke:none"
         d="m 2238.25,381.426 v -160 h 95.82 C 2324.67,186.289 2278.01,160 2241.16,160 c -69.18,0 -125.45,56.25 -125.51,125.41 V 729.922 H 1955.64 V 264.238 h 0.88 C 1967.44,116.719 2090.88,0 2241.16,0 c 111.13,0 221.42,93.5352 221.42,136.406 V 21.2695 h 160 V 381.426 h -384.33" /><path
         id="path22"
         style="fill:#297ebd;fill-opacity:1;fill-rule:nonzero;stroke:none"
         d="m 2878.27,729.922 h -216.78 l -98.11,-248.496 h 172.02 l 34.49,87.344 81.85,-207.344 h -129.16 v -160 h 192.33 l 71.13,-180.1565 h 172.03 l -279.8,708.6525" /><path
         id="path24"
         style="fill:#297ebd;fill-opacity:1;fill-rule:nonzero;stroke:none"
         d="m 3586.39,151.25 h -180.98 v 155.918 h 180.98 c 43.06,0 77.96,-34.902 77.96,-77.949 0,-43.067 -34.9,-77.969 -77.96,-77.969 z m -180.98,448.672 h 160.09 c 43.05,0 77.96,-34.902 77.96,-77.949 0,-43.047 -34.91,-77.95 -77.96,-77.95 h -160.09 z m 328,-205.957 c 113.46,89.101 79.28,335.957 -115.52,335.957 h -212.48 v 0 h -160 V 21.2695 h 149.83 c 0.02,0 0.04,-0.0195 0.06,-0.0195 h 226.78 c 208.51,0 245.6,274.824 111.33,372.715" /><path
         id="path26"
         style="fill:#297ebd;fill-opacity:1;fill-rule:nonzero;stroke:none"
         d="M 1107.09,729.922 943.801,468.613 780.508,729.922 H 591.836 L 863.801,294.688 V 21.2695 H 1023.8 V 294.707 l 271.95,435.215 h -188.66" /></g></g></svg>