<?xml version="1.0" encoding="utf-8"?>
<!-- Generator: Adobe Illustrator 23.0.4, SVG Export Plug-In . SVG Version: 6.00 Build 0)  -->
<svg version="1.1" id="Ebene_1" xmlns="http://www.w3.org/2000/svg" xmlns:xlink="http://www.w3.org/1999/xlink" x="0px" y="0px"
	 viewBox="0 0 131.75 78" style="enable-background:new 0 0 131.75 78;" xml:space="preserve">
<style type="text/css">
	.st0{fill:#FFFFFF;}
</style>
<g>
	<path class="st0" d="M112.48,35.73c0.04-0.52,0.06-1.03,0.06-1.55c0-11.62-9.45-21.07-21.08-21.07c-3.31,0-6.5,0.76-9.37,2.19
		C76.83,6.78,67.44,1.32,57.03,1.32c-12.43,0-23.43,7.97-27.64,19.29c-0.2,0-0.4,0-0.6,0c-15.46,0-28.04,12.58-28.04,28.04
		c0,15.46,12.58,28.04,28.04,28.04h81.42c11.33,0,20.54-9.21,20.54-20.54C130.75,45.58,122.74,36.86,112.48,35.73z M110.21,70.61
		H28.79c-12.13,0-21.96-9.83-21.96-21.96c0-12.13,9.83-21.96,21.96-21.96c1.76,0,3.47,0.23,5.11,0.62
		C35.6,16.04,45.29,7.39,57.03,7.39c10.9,0,20.03,7.45,22.65,17.53c2.75-3.49,7-5.75,11.79-5.75c8.28,0,15,6.71,15,15
		c0,3.52-1.22,6.75-3.25,9.31c2.08-1.15,4.46-1.81,7-1.81c7.99,0,14.46,6.47,14.46,14.46C124.67,64.13,118.2,70.61,110.21,70.61z"/>
	<path class="st0" d="M41.84,64.67c-3.68,0-5.84-2.56-5.84-6.12c0-3.58,2.35-6,5.96-6c1.02,0,2.07,0.16,3.05,0.49l-0.14,1.86
		c-0.75-0.35-1.58-0.61-2.42-0.61c-2.56,0-3.93,1.81-3.93,4.26c0,2.33,1.35,4.35,3.84,4.35c0.89,0,1.74-0.19,2.54-0.53L45,64.2
		C43.98,64.55,42.93,64.67,41.84,64.67"/>
	<rect x="46.77" y="47.63" class="st0" width="2.33" height="16.77"/>
	<path class="st0" d="M56.94,64.66c-3.72,0-5.72-2.58-5.72-6.12c0-3.54,2.23-6,5.72-6c3.68,0,5.72,2.37,5.72,6
		C62.67,62.08,60.62,64.66,56.94,64.66 M56.94,54.29c-2.33,0-3.21,2.21-3.21,4.26c0,2.09,0.88,4.35,3.21,4.35
		c2.33,0,3.21-2.21,3.21-4.35C60.16,56.47,59.34,54.29,56.94,54.29"/>
	<path class="st0" d="M72.44,64.41l-0.07-1.98c-0.79,1.47-2.07,2.23-3.75,2.23c-2.88,0-3.88-1.88-3.88-4.56v-7.33h2.33v6.84
		c0,1.63,0.3,3.21,2.3,3.21c2.16,0,2.82-1.88,2.82-3.72v-6.33h2.33v8.96c0,0.89,0.02,1.79,0.12,2.68H72.44z"/>
	<path class="st0" d="M85.27,64.41l-0.14-1.93c-0.72,1.47-2.05,2.19-3.65,2.19c-3.51,0-4.82-3.05-4.82-6.12c0-3.09,1.3-6,4.82-6
		c1.44,0,2.93,0.79,3.51,2.17v-7.07h2.33v13.29c0,1.28,0.05,2.4,0.12,3.49H85.27z M82.08,54.33c-2.4,0-2.91,2.28-2.91,4.24
		c0,1.91,0.56,4.3,2.93,4.3c2.26,0,2.96-2.47,2.96-4.3C85.06,56.71,84.34,54.33,82.08,54.33"/>
	<polygon class="st0" points="94.68,64.41 94.68,54.33 91,56.82 89.42,52.77 95.49,48.89 100.29,48.89 100.29,64.41 	"/>
	<path class="st0" d="M108.78,64.66c-1.65,0-3.3-0.09-4.93-0.42l0.12-3.56c1.28,0.35,2.63,0.53,3.96,0.53c1.98,0,3.61-0.91,3.58-3.1
		c-1,0.75-2.26,0.96-3.49,0.96c-2.93,0-5.35-1.91-5.35-4.98c0-3.82,3.51-5.44,6.86-5.44c4.77,0,7.52,2.75,7.52,7.65
		C117.04,61.45,113.95,64.66,108.78,64.66 M109.67,51.82c-1.23,0-1.91,0.88-1.91,2.05c0,1.21,0.65,2.05,1.91,2.05
		c1.26,0,1.86-0.88,1.86-2.05C111.53,52.75,110.88,51.82,109.67,51.82"/>
	<path class="st0" d="M119.8,35.23c-1.98,0-3.58-1.61-3.58-3.59c0-1.98,1.6-3.57,3.58-3.57s3.58,1.59,3.58,3.57
		C123.38,33.62,121.78,35.23,119.8,35.23 M119.8,28.68c-1.61,0-2.88,1.34-2.88,2.96c0,1.6,1.27,2.98,2.88,2.98
		c1.62,0,2.9-1.37,2.9-2.98C122.69,30.03,121.41,28.68,119.8,28.68 M120.71,33.52l-0.49-1.17c-0.16-0.37-0.29-0.51-0.77-0.51h-0.34
		v1.68h-0.73v-3.92h1.47c0.72,0,1.38,0.28,1.38,1.04c0,0.52-0.45,0.88-0.98,0.96c0.34,0.06,0.52,0.25,0.65,0.54l0.58,1.38H120.71z
		 M119.53,30.15h-0.43v1.17h0.44c0.46,0,0.95-0.13,0.95-0.62C120.49,30.22,120.01,30.15,119.53,30.15"/>
</g>
</svg>
