<?xml version="1.0" encoding="utf-8"?>
<!-- Generator: Adobe Illustrator 16.0.0, SVG Export Plug-In . SVG Version: 6.00 Build 0)  -->
<!DOCTYPE svg PUBLIC "-//W3C//DTD SVG 1.1//EN" "http://www.w3.org/Graphics/SVG/1.1/DTD/svg11.dtd">
<svg version="1.1"
	 id="svg2" sodipodi:modified="true" xmlns:dc="http://purl.org/dc/elements/1.1/" xmlns:cc="http://creativecommons.org/ns#" xmlns:rdf="http://www.w3.org/1999/02/22-rdf-syntax-ns#" xmlns:svg="http://www.w3.org/2000/svg" xmlns:sodipodi="http://sodipodi.sourceforge.net/DTD/sodipodi-0.dtd" xmlns:inkscape="http://www.inkscape.org/namespaces/inkscape" inkscape:export-ydpi="720" inkscape:export-xdpi="720" inkscape:export-filename="/home/jensens/Desktop/bda-logo-neu2.png" inkscape:output_extension="org.inkscape.output.svg.inkscape" sodipodi:docname="bdan-logo4.svg" inkscape:version="0.48.4 r9939" sodipodi:version="0.32"
	 xmlns="http://www.w3.org/2000/svg" xmlns:xlink="http://www.w3.org/1999/xlink" x="0px" y="0px" width="251.434px"
	 height="52.32px" viewBox="0 0 251.434 52.32" enable-background="new 0 0 251.434 52.32" xml:space="preserve">
<sodipodi:namedview  id="base" inkscape:window-maximized="0" showgrid="false" showguides="true" inkscape:cy="897.37999" inkscape:cx="168.91076" inkscape:zoom="1.5560496" borderopacity="1.0" bordercolor="#666666" pagecolor="#ffffff" inkscape:window-y="42" inkscape:window-x="0" inkscape:window-height="839" inkscape:window-width="1600" inkscape:guide-bbox="true" inkscape:current-layer="layer1" inkscape:document-units="px" inkscape:pageshadow="2" inkscape:pageopacity="0.0">
	<sodipodi:guide  id="guide5145" position="206.93428,958.19568" orientation="horizontal"></sodipodi:guide>
	<sodipodi:guide  id="guide5149" position="995.89582" orientation="horizontal"></sodipodi:guide>
	<sodipodi:guide  id="guide2174" position="59.235351" orientation="vertical"></sodipodi:guide>
	<sodipodi:guide  id="guide4138" position="139.13914" orientation="vertical"></sodipodi:guide>
	<sodipodi:guide  id="guide4140" position="152.16329" orientation="vertical"></sodipodi:guide>
	<sodipodi:guide  id="guide4142" position="974.36085" orientation="horizontal"></sodipodi:guide>
	<sodipodi:guide  id="guide4144" position="1011.3701" orientation="horizontal"></sodipodi:guide>
	<sodipodi:guide  id="guide6092" position="943.70655" orientation="horizontal"></sodipodi:guide>
	<sodipodi:guide  id="guide2183" position="980.64391" orientation="horizontal"></sodipodi:guide>
	<sodipodi:guide  id="guide2185" position="976.43943" orientation="horizontal"></sodipodi:guide>
	<sodipodi:guide  id="guide8978" position="112.33561" orientation="vertical"></sodipodi:guide>
	<sodipodi:guide  id="guide8980" position="86.102814" orientation="vertical"></sodipodi:guide>
	<sodipodi:guide  id="guide2193" position="119.31692" orientation="vertical"></sodipodi:guide>
</sodipodi:namedview>
<g id="layer1" inkscape:groupmode="layer" inkscape:label="Ebene 1">
	<g id="text5141">
		<path id="path3020" fill="#10437D" d="M101.912,6.248c0.591,0,1.065-0.13,1.423-0.391s0.589-0.644,0.692-1.149
			c0.097-0.501,0.021-0.881-0.234-1.142c-0.253-0.267-0.676-0.398-1.267-0.398h-2.076l-0.614,3.08H101.912 M100.761,12.612
			c0.754,0,1.352-0.158,1.794-0.478c0.447-0.318,0.736-0.799,0.867-1.442c0.122-0.631,0.028-1.102-0.283-1.413
			c-0.312-0.317-0.849-0.478-1.607-0.478h-2.203l-0.77,3.811H100.761 M105.303,7.378c0.76,0.233,1.296,0.666,1.607,1.297
			c0.318,0.63,0.388,1.403,0.204,2.319c-0.285,1.402-0.971,2.449-2.056,3.139c-1.086,0.688-2.598,1.033-4.532,1.033h-6.229
			l2.913-14.553h5.635c2.021,0,3.421,0.307,4.201,0.916c0.785,0.611,1.046,1.59,0.778,2.935c-0.143,0.709-0.433,1.312-0.867,1.812
			C106.532,6.77,105.979,7.137,105.303,7.378"/>
		<path id="path3022" fill="#10437D" d="M112.379,0h3.489l-3.031,15.166h-3.488L112.379,0"/>
		<path id="path3024" fill="#10437D" d="M116.941,10.916l1.335-6.666h3.509l-0.215,1.092c-0.123,0.591-0.279,1.335-0.468,2.231
			c-0.183,0.891-0.302,1.483-0.36,1.782c-0.176,0.878-0.279,1.512-0.312,1.901c-0.033,0.383-0.012,0.662,0.066,0.838
			c0.099,0.228,0.247,0.402,0.449,0.526c0.207,0.123,0.461,0.186,0.76,0.186c0.729,0,1.354-0.28,1.881-0.839
			c0.533-0.559,0.896-1.335,1.093-2.329l1.082-5.39h3.489l-2.184,10.916h-3.49l0.312-1.579c-0.65,0.637-1.3,1.106-1.949,1.413
			c-0.65,0.299-1.329,0.447-2.037,0.447c-1.261,0-2.145-0.387-2.651-1.158C116.753,13.515,116.648,12.391,116.941,10.916"/>
		<path id="path3026" fill="#10437D" d="M142.438,9.678l-0.205,0.994h-8.158c-0.078,0.818,0.096,1.433,0.518,1.842
			c0.43,0.409,1.1,0.614,2.008,0.614c0.734,0,1.508-0.107,2.318-0.321c0.812-0.222,1.672-0.553,2.574-0.994l-0.537,2.689
			c-0.889,0.312-1.764,0.546-2.621,0.702c-0.857,0.162-1.697,0.242-2.523,0.242c-1.977,0-3.41-0.5-4.309-1.501
			c-0.891-1.007-1.152-2.417-0.789-4.229c0.357-1.78,1.174-3.181,2.445-4.201c1.281-1.02,2.863-1.53,4.748-1.53
			c1.715,0,2.984,0.518,3.811,1.551C142.543,6.569,142.781,7.95,142.438,9.678 M139.074,8.518c0.137-0.663,0.053-1.194-0.252-1.599
			c-0.307-0.409-0.771-0.613-1.395-0.613c-0.678,0-1.266,0.191-1.766,0.574c-0.5,0.377-0.873,0.923-1.121,1.638H139.074"/>
		<path id="path3028" fill="#10437D" d="M150.215,3.45l-1.773,8.88h1.346c1.533,0,2.779-0.381,3.742-1.142
			c0.961-0.761,1.588-1.864,1.881-3.313c0.285-1.442,0.102-2.54-0.557-3.294c-0.656-0.754-1.754-1.131-3.293-1.131H150.215
			 M147.037,0.614h3.957c2.209,0,3.822,0.159,4.834,0.479c1.021,0.312,1.844,0.845,2.467,1.599c0.553,0.656,0.906,1.413,1.062,2.271
			c0.164,0.857,0.137,1.829-0.076,2.914c-0.223,1.099-0.586,2.08-1.092,2.943c-0.502,0.857-1.158,1.614-1.969,2.271
			c-0.938,0.754-1.982,1.29-3.141,1.608c-1.148,0.312-2.814,0.468-5,0.468h-3.957L147.037,0.614"/>
		<path id="path3030" fill="#10437D" d="M161.287,4.25h3.49l1.451,7.407l3.977-7.407h3.49l-6.979,11.949
			c-0.709,1.215-1.418,2.062-2.125,2.544c-0.709,0.486-1.566,0.729-2.574,0.729H160l0.457-2.29h1.094
			c0.59,0,1.039-0.095,1.344-0.283c0.307-0.188,0.582-0.525,0.83-1.014l0.154-0.302L161.287,4.25"/>
		<path id="path3032" fill="#10437D" d="M185.858,8.518l-1.324,6.647h-3.51l0.215-1.082l0.799-4.006
			c0.189-0.942,0.297-1.593,0.322-1.949c0.031-0.357,0.016-0.62-0.049-0.789c-0.092-0.229-0.244-0.403-0.459-0.526
			c-0.207-0.13-0.461-0.194-0.76-0.194c-0.729,0-1.355,0.281-1.881,0.848c-0.525,0.559-0.891,1.336-1.092,2.33l-1.072,5.37h-3.488
			l2.184-10.916h3.488l-0.322,1.599c0.656-0.638,1.311-1.104,1.959-1.404c0.65-0.305,1.332-0.458,2.047-0.458
			c1.262,0,2.143,0.388,2.643,1.16C186.057,5.92,186.156,7.044,185.858,8.518"/>
		<path id="path3034" fill="#10437D" d="M193.664,10.254c-0.727,0-1.299,0.123-1.715,0.37s-0.672,0.609-0.77,1.092
			c-0.092,0.441-0.014,0.789,0.232,1.043c0.248,0.246,0.635,0.37,1.16,0.37c0.656,0,1.254-0.234,1.793-0.702
			c0.547-0.474,0.893-1.065,1.033-1.773l0.078-0.398L193.664,10.254 M199.26,8.937l-1.248,6.229h-3.52l0.322-1.618
			c-0.598,0.663-1.223,1.146-1.871,1.452c-0.645,0.299-1.385,0.448-2.223,0.448c-1.131,0-1.982-0.328-2.555-0.984
			c-0.57-0.662-0.754-1.521-0.545-2.573c0.26-1.279,0.887-2.219,1.881-2.815c1-0.599,2.443-0.896,4.326-0.896h2.059l0.059-0.272
			c0.109-0.553-0.027-0.955-0.41-1.208c-0.383-0.261-1.035-0.391-1.959-0.391c-0.746,0-1.459,0.074-2.135,0.225
			c-0.668,0.148-1.311,0.374-1.93,0.673l0.537-2.661c0.785-0.183,1.561-0.318,2.328-0.409c0.773-0.098,1.537-0.146,2.291-0.146
			c1.969,0,3.312,0.391,4.033,1.171C199.426,5.929,199.612,7.19,199.26,8.937"/>
		<path id="path3036" fill="#10437D" d="M213.217,6.062c0.576-0.676,1.203-1.188,1.881-1.54c0.676-0.356,1.377-0.536,2.104-0.536
			c1.254,0,2.133,0.388,2.633,1.16c0.508,0.773,0.609,1.897,0.312,3.372l-1.326,6.647h-3.508l1.141-5.692
			c0.02-0.084,0.039-0.172,0.059-0.263c0.025-0.091,0.055-0.222,0.088-0.391c0.156-0.772,0.152-1.332-0.01-1.677
			c-0.156-0.351-0.488-0.525-0.994-0.525c-0.662,0-1.229,0.271-1.695,0.817s-0.812,1.336-1.033,2.369l-1.072,5.36h-3.51l1.143-5.692
			c0.238-1.208,0.289-1.984,0.145-2.329c-0.135-0.351-0.471-0.525-1.004-0.525c-0.668,0-1.24,0.275-1.715,0.827
			c-0.467,0.547-0.805,1.329-1.014,2.351l-1.072,5.37h-3.508l2.184-10.916h3.508l-0.32,1.599c0.553-0.618,1.137-1.082,1.754-1.395
			s1.26-0.469,1.93-0.469c0.754,0,1.385,0.184,1.891,0.547C212.709,4.896,213.047,5.406,213.217,6.062"/>
		<path id="path3038" fill="#10437D" d="M224.28,4.25h3.488l-2.184,10.916h-3.488L224.28,4.25 M225.127,0h3.488l-0.564,2.847h-3.488
			L225.127,0"/>
		<path id="path3040" fill="#10437D" d="M239.893,4.591l-0.564,2.846c-0.41-0.324-0.84-0.564-1.287-0.721s-0.93-0.234-1.441-0.234
			c-0.977,0-1.791,0.286-2.447,0.858c-0.656,0.563-1.084,1.356-1.285,2.378c-0.209,1.02-0.098,1.815,0.33,2.388
			c0.43,0.565,1.131,0.849,2.105,0.849c0.547,0,1.078-0.081,1.6-0.243c0.525-0.163,1.029-0.403,1.51-0.723l-0.564,2.855
			c-0.592,0.202-1.18,0.352-1.766,0.449c-0.576,0.104-1.148,0.155-1.715,0.155c-1.969,0-3.408-0.504-4.316-1.512
			c-0.91-1.014-1.184-2.42-0.818-4.22c0.357-1.8,1.191-3.203,2.504-4.211c1.312-1.014,2.953-1.521,4.922-1.521
			c0.572,0,1.125,0.054,1.658,0.156C238.854,4.24,239.379,4.389,239.893,4.591"/>
		<path id="path3042" fill="#10437D" d="M251.451,4.591l-0.525,2.651c-0.688-0.312-1.363-0.547-2.027-0.702
			c-0.662-0.156-1.303-0.233-1.92-0.233c-0.662,0-1.174,0.084-1.529,0.253c-0.352,0.162-0.562,0.416-0.633,0.761
			c-0.061,0.279,0.018,0.493,0.232,0.644c0.213,0.149,0.629,0.26,1.248,0.332l0.594,0.087c1.74,0.228,2.869,0.602,3.383,1.121
			s0.658,1.336,0.438,2.446c-0.232,1.162-0.838,2.036-1.812,2.621c-0.975,0.586-2.312,0.878-4.016,0.878
			c-0.721,0-1.455-0.06-2.203-0.176c-0.746-0.11-1.504-0.279-2.27-0.507l0.535-2.65c0.625,0.338,1.283,0.591,1.979,0.76
			c0.703,0.169,1.432,0.254,2.186,0.254c0.682,0,1.211-0.095,1.588-0.283c0.383-0.188,0.615-0.468,0.691-0.838
			c0.059-0.312-0.016-0.542-0.225-0.691c-0.201-0.155-0.65-0.275-1.344-0.36l-0.596-0.078c-1.516-0.194-2.531-0.555-3.051-1.081
			S241.5,8.472,241.715,7.4c0.234-1.155,0.803-2.014,1.705-2.571c0.904-0.561,2.174-0.84,3.812-0.84c0.643,0,1.309,0.05,1.998,0.146
			C249.918,4.23,250.658,4.383,251.451,4.591"/>
	</g>
	<g id="text3149">
		<path id="path3045" fill="#E61717" d="M103.391,24.115l-4.123,7.24h5.351L103.391,24.115 M102.67,22.175h2.232l2.631,14.551
			h-2.047l-0.574-3.731h-6.56l-2.076,3.731H94.2L102.67,22.175"/>
		<path id="path3047" fill="#E61717" d="M112.601,21.561h1.794l-3.031,15.165h-1.794L112.601,21.561"/>
		<path id="path3049" fill="#E61717" d="M118.137,21.561h1.793l-3.03,15.165h-1.794L118.137,21.561"/>
		<path id="path3051" fill="#E61717" d="M122.826,25.81h1.793l-2.184,10.916h-1.793L122.826,25.81 M123.674,21.561h1.793
			l-0.448,2.271h-1.793L123.674,21.561"/>
		<path id="path3053" fill="#E61717" d="M132.24,31.239c-1.449,0-2.488,0.166-3.119,0.497c-0.623,0.332-1.014,0.897-1.17,1.696
			c-0.129,0.637-0.021,1.145,0.322,1.521c0.344,0.37,0.877,0.556,1.598,0.556c0.994,0,1.863-0.352,2.604-1.053
			c0.742-0.708,1.229-1.647,1.463-2.816l0.088-0.399h-1.785 M135.963,30.499l-1.246,6.228h-1.795l0.332-1.656
			c-0.539,0.662-1.146,1.153-1.822,1.473c-0.676,0.312-1.455,0.468-2.34,0.468c-1.117,0-1.941-0.312-2.477-0.936
			c-0.533-0.632-0.695-1.473-0.487-2.524c0.247-1.229,0.842-2.154,1.784-2.778c0.949-0.623,2.238-0.936,3.869-0.936h2.516
			l0.039-0.175c0.162-0.825,0.016-1.463-0.439-1.911c-0.447-0.454-1.162-0.683-2.145-0.683c-0.623,0-1.246,0.074-1.871,0.225
			c-0.617,0.148-1.229,0.374-1.832,0.673l0.332-1.657c0.709-0.253,1.381-0.44,2.018-0.564c0.643-0.131,1.258-0.194,1.842-0.194
			c1.58,0,2.678,0.409,3.295,1.228C136.153,27.594,136.295,28.835,135.963,30.499"/>
		<path id="path3055" fill="#E61717" d="M148.809,30.138l-1.314,6.588h-1.793l1.307-6.53c0.207-1.031,0.158-1.806-0.146-2.318
			c-0.299-0.515-0.852-0.771-1.656-0.771c-0.969,0-1.795,0.31-2.477,0.927c-0.684,0.616-1.127,1.459-1.336,2.523l-1.236,6.169
			h-1.805l2.184-10.916h1.805l-0.342,1.696c0.559-0.656,1.16-1.147,1.805-1.472c0.648-0.325,1.354-0.487,2.113-0.487
			c1.254,0,2.125,0.39,2.611,1.169C149.022,27.49,149.115,28.631,148.809,30.138"/>
		<path id="path3057" fill="#E61717" d="M161.041,26.229l-0.33,1.678c-0.449-0.279-0.918-0.487-1.404-0.624
			c-0.48-0.144-0.98-0.215-1.5-0.215c-1.164,0-2.143,0.37-2.936,1.11c-0.785,0.734-1.311,1.768-1.578,3.1
			c-0.266,1.332-0.152,2.368,0.342,3.109c0.492,0.734,1.322,1.102,2.484,1.102c0.521,0,1.049-0.067,1.59-0.204
			c0.539-0.144,1.092-0.354,1.656-0.635l-0.332,1.657c-0.553,0.234-1.107,0.409-1.666,0.526s-1.141,0.176-1.744,0.176
			c-1.645,0-2.846-0.517-3.605-1.55s-0.965-2.427-0.615-4.183c0.357-1.779,1.125-3.181,2.301-4.199
			c1.184-1.021,2.625-1.53,4.328-1.53c0.553,0,1.078,0.059,1.578,0.175C160.115,25.834,160.594,26.003,161.041,26.229"/>
		<path id="path3059" fill="#E61717" d="M172.602,30.82l-0.176,0.877h-8.246c-0.168,1.235,0.014,2.178,0.545,2.827
			c0.541,0.644,1.404,0.965,2.594,0.965c0.689,0,1.375-0.085,2.057-0.254c0.684-0.169,1.373-0.422,2.076-0.76l-0.342,1.695
			c-0.695,0.272-1.396,0.48-2.104,0.624c-0.703,0.144-1.4,0.215-2.098,0.215c-1.74,0-3.018-0.507-3.83-1.521
			c-0.811-1.014-1.045-2.385-0.701-4.112c0.357-1.787,1.121-3.203,2.291-4.249c1.176-1.054,2.582-1.579,4.221-1.579
			c1.469,0,2.533,0.474,3.195,1.423C172.754,27.913,172.926,29.196,172.602,30.82 M170.914,30.294
			c0.184-0.98,0.062-1.765-0.359-2.35c-0.416-0.585-1.064-0.877-1.949-0.877c-1,0-1.857,0.282-2.572,0.849
			c-0.715,0.565-1.219,1.36-1.512,2.388L170.914,30.294"/>
	</g>
	<g id="g2195">
		
			<path id="path2160" sodipodi:cy="370.93362" sodipodi:rx="72.85714" sodipodi:ry="72.85714" sodipodi:cx="367.14285" sodipodi:type="arc" inkscape:export-ydpi="720.09052" inkscape:export-xdpi="720.09052" inkscape:export-filename="/home/jensens/Desktop/bda-logo-n.png" fill="#10437D" d="
			M39.243,37.092c-7.209,0-12.721-4.722-12.311-10.547c0.41-5.824,6.586-10.547,13.795-10.547c7.208,0,12.72,4.723,12.31,10.547
			C52.628,32.37,46.451,37.092,39.243,37.092z"/>
		
			<path id="path8976" inkscape:connector-curvature="0" sodipodi:nodetypes="csc" inkscape:export-ydpi="720.09052" inkscape:export-xdpi="720.09052" inkscape:export-filename="/home/jensens/Desktop/bda-logo-n.png" fill="#E61717" d="
			M60.025,9.489c37.179,14.839,14.524,37.832-6.613,42.786C48.315,53.469,99.992,31.115,60.025,9.489z"/>
		
			<path id="path2191" inkscape:connector-curvature="0" sodipodi:nodetypes="csc" inkscape:export-ydpi="720.09052" inkscape:export-xdpi="720.09052" inkscape:export-filename="/home/jensens/Desktop/bda-logo-n.png" fill="#E61717" d="
			M19.855,42.964C-17.323,28.125,5.331,5.132,26.469,0.177C31.565-1.017-20.113,21.337,19.855,42.964z"/>
	</g>
</g>
</svg>
