<svg xmlns="http://www.w3.org/2000/svg" xmlns:xlink="http://www.w3.org/1999/xlink" width="264px" height="280px" viewBox="0 0 264 280" version="1.1">
    <title id="transparent_Title">Avataaar/Default</title>
    <desc>Created with python_avatars</desc>
    <defs>
        <path d="M100,0 C130.927946,-5.68137151e-15 156,25.072054 156,56 L156.000809,62.1660527 C161.675838,63.1185422 166,68.05429 166,74 L166,88 C166,94.0524166 161.519235,99.0582945 155.693975,99.8813638 C153.627928,119.686472 141.237929,136.421678 124.001014,144.610469 L124,163 L128,163 C167.764502,163 200,195.235498 200,235 L200,244 L0,244 L0,235 C-4.86974701e-15,195.235498 32.235498,163 72,163 L76,163 L75.9999836,144.610943 C58.7625487,136.422324 46.3721119,119.686854 44.3051107,99.8809698 C38.480765,99.0582945 34,94.0524166 34,88 L34,74 C34,68.053942 38.3246685,63.1179645 44.0001873,62.1658855 L44,56 C44,25.072054 69.072054,5.68137151e-15 100,0 Z" id="transparent_path-1" />
        <path d="M83,36.3476251 C83,52.6289957 105.161905,65.8276544 132.5,65.8276544 C159.838095,65.8276544 182,52.6289957 182,36.3476251 C182,34.9853134 181.844841,33.6445843 181.544472,32.3313638 C210.784239,41.4879251 232,68.792221 232,101.051724 L232,110 L32,110 L32,101.051724 C32,68.3970853 53.7386736,40.8197864 83.5337207,32.0021267 C83.1821692,33.4207025 83,34.871494 83,36.3476251 Z" id="transparent_path-3" />
        <rect id="transparent_path-5" x="0" y="0" width="264" height="280" />
        <path d="M74,0 C114.869071,0 148,33.1309285 148,74 L148,84.1482318 L148,197.608051 C135.525121,187.236892 119.490913,181 102,181 L102,181 L98,181 L98,162.610951 C115.530782,154.282984 128.048193,137.114792 129.791419,116.867187 C135.569129,116.002364 140,111.018625 140,105 L140,105 L140,92 C140,87.3536213 137.359271,83.3240177 133.496777,81.3301515 C132.723933,81.0500337 131.951808,80.748163 131.180891,80.4262497 C130.794819,80.3202581 130.400778,80.2331546 130,80.1659169 L130,80.1659169 L130.000458,79.9172528 C117.224481,74.2339715 104.877985,63.0706967 96.1104311,47.8848473 C93.1752556,42.8009742 90.8310687,37.5951441 89.0661426,32.3970356 C80.4313947,42.9409152 67.7445474,53.6023901 52.3415164,62.4953343 C42.777598,68.0170651 33.1467898,72.2910056 24,75.2659587 L24.0003852,137.246608 C29.6019576,148.318362 38.7728825,157.277529 50,162.610951 L50,162.610951 L50,181 L46,181 C38.3273639,181 30.9350359,182.200142 24.0004995,184.422941 L24,230 C24,244.105888 13.5691766,255.775526 0,257.716445 L0,74 C0,33.1309285 33.1309285,0 74,0 Z" id="transparent_path-7" />
    </defs>
    <g id="transparent_Avataaar/Default" stroke="none" stroke-width="1" fill="none" fill-rule="evenodd">
        <g id="transparent_Body" transform="translate(32.000000, 36.000000)">
            <mask id="transparent_mask-2" fill="white">
                <use xlink:href="#transparent_path-1" />
            </mask>
            <use fill="#D0C6AC" xlink:href="#transparent_path-1" />
            <g id="transparent_Skin-Color" mask="url(#transparent_mask-2)" fill="#F8D25C">
                <g transform="translate(-32.000000, 0.000000)" id="transparent_Color">
                    <rect x="0" y="0" width="264" height="244" />
                </g>
            </g>
            <path d="M44,94 C44,124.927946 69.072054,150 100,150 C130.927946,150 156,124.927946 156,94 L156,94 L156,102 C156,132.927946 130.927946,158 100,158 C69.072054,158 44,132.927946 44,102 Z" id="transparent_Neck-Shadow" fill-opacity="0.100000001" fill="#000000" mask="url(#transparent_mask-2)" />
        </g>
        <g id="transparent_Clothing" transform="translate(0.000000, 170.000000)">
            
        <defs>
        <path d="M196.000348,38.6320038 L196,110 L68,110 L67.999672,38.6319925 C75.8495147,34.0910485 84.6362412,30.9895697 93.9989132,29.6884945 L93.999,73.9993435 L170,73.9993435 L170.001087,29.6884945 C179.363767,30.9895707 188.1505,34.0910536 196.000348,38.6320038 Z" id="overall_path-1" />
    </defs>
    <g id="overall_Clothing/Overall" stroke="none" stroke-width="1" fill="none" fill-rule="evenodd">
        <mask id="overall_mask-2" fill="white">
            <use xlink:href="#overall_path-1" />
        </mask>
        <use id="overall_Overall" fill="#B7C1DB" xlink:href="#overall_path-1" />
        <g id="overall_Fabric-Color" mask="url(#overall_mask-2)" fill="#3C4F5C">
            <rect id="overall_ðŸ–Color" x="0" y="0" width="264" height="110" />
        </g>
        <circle id="overall_Button" fill="#F4F4F4" cx="81" cy="83" r="5" />
        <circle id="overall_Button" fill="#F4F4F4" cx="183" cy="83" r="5" />
    </g>
</g>
        <g id="transparent_Face" transform="translate(76.000000, 82.000000)" fill="#000000">
            <g id="transparent_Mouth" transform="translate(2.000000, 52.000000)">    
                
            <defs>
        <rect id="grimace_path-1" x="24" y="9" width="60" height="22" rx="11" />
    </defs>
    <g id="grimace_Mouth/Grimace" stroke="none" stroke-width="1" fill="none" fill-rule="evenodd">
        <rect id="grimace_Mouth" fill-opacity="0.599999964" fill="#000000" x="22" y="7" width="64" height="26" rx="13" />
        <mask id="grimace_mask-2" fill="white">
            <use xlink:href="#grimace_path-1" />
        </mask>
        <use id="grimace_Mouth" fill="#FFFFFF" xlink:href="#grimace_path-1" />
        <path d="M36,6 L35.9993333,17.999 L44.9993333,17.999 L45,6 L49,6 L48.9993333,17.999 L57.9993333,17.999 L58,6 L62,6 L61.9993333,17.999 L70.9993333,17.999 L71,6 L75,6 L74.9993333,17.999 L83.8666667,18 L83.8666667,22 L74.9993333,21.999 L75,34 L71,34 L70.9993333,21.999 L61.9993333,21.999 L62,34 L58,34 L57.9993333,21.999 L48.9993333,21.999 L49,34 L45,34 L44.9993333,21.999 L35.9993333,21.999 L36,34 L32,34 L31.9993333,21.999 L24,22 L24,18 L31.9993333,17.999 L32,6 L36,6 Z" id="grimace_Grimace-Teeth" fill="#E6E6E6" mask="url(#grimace_mask-2)" />
    </g>
</g>
            <g id="transparent_Nose" transform="translate(28.000000, 40.000000)" fill-opacity="0.16">
                
            <g id="default_Nose/Default" stroke="none" stroke-width="1" fill="none" fill-rule="evenodd" fill-opacity="0.16">
        <path d="M16,8 C16,12.418278 21.372583,16 28,16 L28,16 C34.627417,16 40,12.418278 40,8" id="default_Nose" fill="#000000" />
    </g>
</g>
            <g id="transparent_Eyes" transform="translate(0.000000, 8.000000)">
                
            <g id="default_Eyes/Default-ðŸ˜€" stroke="none" stroke-width="1" fill="none" fill-rule="evenodd" fill-opacity="0.599999964">
        <circle id="default_Eye" fill="#000000" cx="30" cy="22" r="6" />
        <circle id="default_Eye" fill="#000000" cx="82" cy="22" r="6" />
    </g>
</g>
            <g id="transparent_Eyebrow" fill-opacity="0.599999964">
                
            <g id="default_natural_Eyebrow/Natural/Default-Natural" stroke="none" stroke-width="1" fill="none" fill-rule="evenodd" fill-opacity="0.599999964">
        <path d="M26.0390934,6.21012364 C20.2775554,6.98346216 11.2929313,12.0052479 12.04426,17.8178111 C12.0689481,18.0080543 12.3567302,18.0673468 12.4809077,17.9084937 C14.9674041,14.7203351 34.1927973,10.0365481 41.1942673,11.0147151 C41.8350523,11.1044465 42.2580662,10.4430343 41.8210501,10.0302067 C38.0765663,6.49485426 31.2003792,5.51224825 26.0390934,6.21012364" id="default_natural_Eyebrow" fill="#000000" transform="translate(27.000000, 12.000000) rotate(5.000000) translate(-27.000000, -12.000000) " />
        <path d="M85.0390934,6.21012364 C79.2775554,6.98346216 70.2929313,12.0052479 71.04426,17.8178111 C71.0689481,18.0080543 71.3567302,18.0673468 71.4809077,17.9084937 C73.9674041,14.7203351 93.1927973,10.0365481 100.194267,11.0147151 C100.835052,11.1044465 101.258066,10.4430343 100.82105,10.0302067 C97.0765663,6.49485426 90.2003792,5.51224825 85.0390934,6.21012364" id="default_natural_Eyebrow" fill="#000000" transform="translate(86.000000, 12.000000) scale(-1, 1) rotate(5.000000) translate(-86.000000, -12.000000) " />
    </g>
</g>
        </g>
        <g id="transparent_Top">
            
        <defs>
        <path d="M90.9102919,55.3613196 L175.085702,55.3613196 C193.333279,44.8338001 196.759397,26.1510357 183.849606,9.92600089 C180.635746,5.88682054 175.085702,21.6755614 158.028596,22.6504878 C140.97149,23.6254143 142.608865,16.3498661 124.45759,19.0739248 C106.306316,21.7979835 108.311575,36.37843 96.4671989,39.8768239 C88.5709482,42.2090865 86.7186458,47.370585 90.9102919,55.3613196 Z" id="frizzle_path-1" />
    </defs>
    <g id="frizzle_Top/Short-Hair/Frizzle" stroke="none" stroke-width="1" fill="none" fill-rule="evenodd" transform="translate(-1 0)">
        <g id="frizzle_Facial-Hair" transform="translate(49.000000, 72.000000)" />
        <mask id="frizzle_mask-2" fill="white">
            <use xlink:href="#frizzle_path-1" />
        </mask>
        <use id="frizzle_Hair-Maks" fill="#252E32" xlink:href="#frizzle_path-1" />
        <g id="frizzle_Hair-Color" mask="url(#frizzle_mask-2)" fill="#F59797">
            <g transform="translate(1.000000, 0.000000)" id="frizzle_Color">
                <rect x="0" y="0" width="264" height="280" />
            </g>
        </g>
        <g id="frizzle_Accessory" transform="translate(62.000000, 85.000000)">
        </g>
    </g>
</g>
    </g>
</svg>