<svg xmlns="http://www.w3.org/2000/svg" xmlns:xlink="http://www.w3.org/1999/xlink" width="264px" height="280px" viewBox="0 0 264 280" version="1.1">
    <title id="transparent_Title">Avataaar/Default</title>
    <desc>Created with python_avatars</desc>
    <defs>
        <path d="M100,0 C130.927946,-5.68137151e-15 156,25.072054 156,56 L156.000809,62.1660527 C161.675838,63.1185422 166,68.05429 166,74 L166,88 C166,94.0524166 161.519235,99.0582945 155.693975,99.8813638 C153.627928,119.686472 141.237929,136.421678 124.001014,144.610469 L124,163 L128,163 C167.764502,163 200,195.235498 200,235 L200,244 L0,244 L0,235 C-4.86974701e-15,195.235498 32.235498,163 72,163 L76,163 L75.9999836,144.610943 C58.7625487,136.422324 46.3721119,119.686854 44.3051107,99.8809698 C38.480765,99.0582945 34,94.0524166 34,88 L34,74 C34,68.053942 38.3246685,63.1179645 44.0001873,62.1658855 L44,56 C44,25.072054 69.072054,5.68137151e-15 100,0 Z" id="transparent_path-1" />
        <path d="M83,36.3476251 C83,52.6289957 105.161905,65.8276544 132.5,65.8276544 C159.838095,65.8276544 182,52.6289957 182,36.3476251 C182,34.9853134 181.844841,33.6445843 181.544472,32.3313638 C210.784239,41.4879251 232,68.792221 232,101.051724 L232,110 L32,110 L32,101.051724 C32,68.3970853 53.7386736,40.8197864 83.5337207,32.0021267 C83.1821692,33.4207025 83,34.871494 83,36.3476251 Z" id="transparent_path-3" />
        <rect id="transparent_path-5" x="0" y="0" width="264" height="280" />
        <path d="M74,0 C114.869071,0 148,33.1309285 148,74 L148,84.1482318 L148,197.608051 C135.525121,187.236892 119.490913,181 102,181 L102,181 L98,181 L98,162.610951 C115.530782,154.282984 128.048193,137.114792 129.791419,116.867187 C135.569129,116.002364 140,111.018625 140,105 L140,105 L140,92 C140,87.3536213 137.359271,83.3240177 133.496777,81.3301515 C132.723933,81.0500337 131.951808,80.748163 131.180891,80.4262497 C130.794819,80.3202581 130.400778,80.2331546 130,80.1659169 L130,80.1659169 L130.000458,79.9172528 C117.224481,74.2339715 104.877985,63.0706967 96.1104311,47.8848473 C93.1752556,42.8009742 90.8310687,37.5951441 89.0661426,32.3970356 C80.4313947,42.9409152 67.7445474,53.6023901 52.3415164,62.4953343 C42.777598,68.0170651 33.1467898,72.2910056 24,75.2659587 L24.0003852,137.246608 C29.6019576,148.318362 38.7728825,157.277529 50,162.610951 L50,162.610951 L50,181 L46,181 C38.3273639,181 30.9350359,182.200142 24.0004995,184.422941 L24,230 C24,244.105888 13.5691766,255.775526 0,257.716445 L0,74 C0,33.1309285 33.1309285,0 74,0 Z" id="transparent_path-7" />
    </defs>
    <g id="transparent_Avataaar/Default" stroke="none" stroke-width="1" fill="none" fill-rule="evenodd">
        <g id="transparent_Body" transform="translate(32.000000, 36.000000)">
            <mask id="transparent_mask-2" fill="white">
                <use xlink:href="#transparent_path-1" />
            </mask>
            <use fill="#D0C6AC" xlink:href="#transparent_path-1" />
            <g id="transparent_Skin-Color" mask="url(#transparent_mask-2)" fill="#EDB98A">
                <g transform="translate(-32.000000, 0.000000)" id="transparent_Color">
                    <rect x="0" y="0" width="264" height="244" />
                </g>
            </g>
            <path d="M44,94 C44,124.927946 69.072054,150 100,150 C130.927946,150 156,124.927946 156,94 L156,94 L156,102 C156,132.927946 130.927946,158 100,158 C69.072054,158 44,132.927946 44,102 Z" id="transparent_Neck-Shadow" fill-opacity="0.100000001" fill="#000000" mask="url(#transparent_mask-2)" />
        </g>
        <g id="transparent_Clothing" transform="translate(0.000000, 170.000000)">
            
        <defs>
        <path d="M232,101.051724 L232,110 L32,110 L32,101.051724 C32,65.1384292 58.2938256,35.3663869 92.6806879,29.9363855 C93.5844961,35.0070695 96.1171239,39.8245023 100.236125,43.5389794 L100.236125,43.5389794 L129.321203,69.7676333 C130.843316,71.1402598 133.156684,71.1402598 134.678797,69.7676333 L134.678797,69.7676333 L163.763875,43.5389794 C164.189462,43.1551884 164.601167,42.7562772 164.998197,42.3430127 C168.413626,38.7879269 170.516642,34.4534098 171.319249,29.9385703 C205.706684,35.3669637 232,65.1387771 232,101.051724 Z" id="shirt_v_neck_path-1" />
    </defs>
    <g id="shirt_v_neck_Clothing/Shirt-V-Neck" stroke="none" stroke-width="1" fill="none" fill-rule="evenodd">
        <mask id="shirt_v_neck_mask-2" fill="white">
            <use xlink:href="#shirt_v_neck_path-1" />
        </mask>
        <use id="shirt_v_neck_Clothes" fill="#E6E6E6" xlink:href="#shirt_v_neck_path-1" />
        <g id="shirt_v_neck_Fabric-Color" mask="url(#shirt_v_neck_mask-2)" fill="#3C4F5C">
            <rect id="shirt_v_neck_ðŸ–Color" x="0" y="0" width="264" height="110" />
        </g>
    </g>
</g>
        <g id="transparent_Face" transform="translate(76.000000, 82.000000)" fill="#000000">
            <g id="transparent_Mouth" transform="translate(2.000000, 52.000000)">    
                
            <defs>
        <rect id="grimace_path-1" x="24" y="9" width="60" height="22" rx="11" />
    </defs>
    <g id="grimace_Mouth/Grimace" stroke="none" stroke-width="1" fill="none" fill-rule="evenodd">
        <rect id="grimace_Mouth" fill-opacity="0.599999964" fill="#000000" x="22" y="7" width="64" height="26" rx="13" />
        <mask id="grimace_mask-2" fill="white">
            <use xlink:href="#grimace_path-1" />
        </mask>
        <use id="grimace_Mouth" fill="#FFFFFF" xlink:href="#grimace_path-1" />
        <path d="M36,6 L35.9993333,17.999 L44.9993333,17.999 L45,6 L49,6 L48.9993333,17.999 L57.9993333,17.999 L58,6 L62,6 L61.9993333,17.999 L70.9993333,17.999 L71,6 L75,6 L74.9993333,17.999 L83.8666667,18 L83.8666667,22 L74.9993333,21.999 L75,34 L71,34 L70.9993333,21.999 L61.9993333,21.999 L62,34 L58,34 L57.9993333,21.999 L48.9993333,21.999 L49,34 L45,34 L44.9993333,21.999 L35.9993333,21.999 L36,34 L32,34 L31.9993333,21.999 L24,22 L24,18 L31.9993333,17.999 L32,6 L36,6 Z" id="grimace_Grimace-Teeth" fill="#E6E6E6" mask="url(#grimace_mask-2)" />
    </g>
</g>
            <g id="transparent_Nose" transform="translate(28.000000, 40.000000)" fill-opacity="0.16">
                
            <g id="default_Nose/Default" stroke="none" stroke-width="1" fill="none" fill-rule="evenodd" fill-opacity="0.16">
        <path d="M16,8 C16,12.418278 21.372583,16 28,16 L28,16 C34.627417,16 40,12.418278 40,8" id="default_Nose" fill="#000000" />
    </g>
</g>
            <g id="transparent_Eyes" transform="translate(0.000000, 8.000000)">
                
            <g id="default_Eyes/Default-ðŸ˜€" stroke="none" stroke-width="1" fill="none" fill-rule="evenodd" fill-opacity="0.599999964">
        <circle id="default_Eye" fill="#000000" cx="30" cy="22" r="6" />
        <circle id="default_Eye" fill="#000000" cx="82" cy="22" r="6" />
    </g>
</g>
            <g id="transparent_Eyebrow" fill-opacity="0.599999964">
                
            <g id="default_natural_Eyebrow/Natural/Default-Natural" stroke="none" stroke-width="1" fill="none" fill-rule="evenodd" fill-opacity="0.599999964">
        <path d="M26.0390934,6.21012364 C20.2775554,6.98346216 11.2929313,12.0052479 12.04426,17.8178111 C12.0689481,18.0080543 12.3567302,18.0673468 12.4809077,17.9084937 C14.9674041,14.7203351 34.1927973,10.0365481 41.1942673,11.0147151 C41.8350523,11.1044465 42.2580662,10.4430343 41.8210501,10.0302067 C38.0765663,6.49485426 31.2003792,5.51224825 26.0390934,6.21012364" id="default_natural_Eyebrow" fill="#000000" transform="translate(27.000000, 12.000000) rotate(5.000000) translate(-27.000000, -12.000000) " />
        <path d="M85.0390934,6.21012364 C79.2775554,6.98346216 70.2929313,12.0052479 71.04426,17.8178111 C71.0689481,18.0080543 71.3567302,18.0673468 71.4809077,17.9084937 C73.9674041,14.7203351 93.1927973,10.0365481 100.194267,11.0147151 C100.835052,11.1044465 101.258066,10.4430343 100.82105,10.0302067 C97.0765663,6.49485426 90.2003792,5.51224825 85.0390934,6.21012364" id="default_natural_Eyebrow" fill="#000000" transform="translate(86.000000, 12.000000) scale(-1, 1) rotate(5.000000) translate(-86.000000, -12.000000) " />
    </g>
</g>
        </g>
        <g id="transparent_Top">
            
        <defs>
        <path d="M56.6830963,168.772 L56.7107473,168.709458 C56.416717,169.539043 55.6388355,169.398111 55.3468697,170.07271 C55.3356677,170.098476 54.6931475,172.74417 54.7822568,172.609485 C54.0114437,173.77676 53.0103456,173.688921 51.9872076,174.195261 C50.5714284,174.896017 49.4285338,176.192512 47.7210266,176.087887 C47.3835007,176.067196 45.8972683,175.647914 45.7732734,175.678365 C45.2188422,174.627817 44.712395,174.701211 44.2542196,175.898937 C43.9803807,176.413865 43.7062927,176.928403 43.4326768,177.443722 C42.7562908,178.242857 43.008912,179.689263 41.3837473,179.20908 C37.0221866,177.920783 44.1404008,170.681333 46.6413081,170.561482 C45.222862,167.210738 44.0760798,165.639406 40.9122645,164.344472 C38.6803216,163.431343 35.8579788,163.072962 34.3203529,160.740363 C33.4406255,159.407952 33.1549566,158.211397 33.7876434,156.661927 C34.3317238,155.329905 36.8900419,154.785698 37.0806939,153.833919 C37.301235,152.734182 32.6420388,149.851129 31.6318019,148.569078 C29.604919,146.000291 29.2527527,142.493 25.7496614,142.923213 C22.7169752,143.295258 22.5082405,147.54781 20.3316507,148.295803 C13.6337844,150.600652 21.2344349,140.573248 23.098365,138.949431 L23.1440963,138.91 L23.0903283,138.926748 C20.5600386,139.66429 14.3680056,141.038369 13.0786076,137.500234 L13.0097195,137.290621 C11.9114372,133.569004 14.8906605,135.386674 16.2480678,135.542832 C18.8477815,135.842653 20.9696368,135.690791 23.5253695,134.93577 C21.328009,133.54519 16.5600021,129.760719 17.6048295,126.674272 C19.1297602,122.18397 22.0492883,127.906352 23.2377959,129.136091 C23.9404919,126.650458 25.9286815,125.412912 27.9404633,124.415457 C24.4247131,124.380712 21.0634173,123.177911 18.2658233,120.739516 C14.7956022,122.001266 11.5636759,120.776994 8.31806645,119.133048 C7.1521321,118.543555 4.82030298,117.777604 4.28187338,116.365942 C3.50714906,114.33785 4.86832034,113.256461 6.48191847,113.343909 C9.44069672,113.504361 12.7691062,118.433464 16.0678004,117.11862 C16.5976214,116.907417 16.4875948,115.464915 17.3157029,115.190078 C17.8260425,115.020647 18.5290809,115.331791 18.9332619,115.176024 C19.4893606,114.962089 19.4216552,115.995069 20.0353361,115.585546 C18.3720966,114.086046 16.6502186,113.127241 15.2570206,111.263504 C14.5506213,110.319534 14.1501828,108.989074 13.4385893,108.120059 C12.8005957,107.342006 11.5823428,106.981673 11.003339,106.125931 C9.16499332,103.411918 10.2619363,102.05257 13.2017458,102.613565 C13.8353612,102.734196 16.8931801,103.937778 17.3124291,104.492136 C19.1191629,101.97332 21.8129983,98.7732678 20.3954288,95.1781378 C20.0019971,94.1826354 18.1406712,92.8638875 17.4378821,91.9242113 C16.6409799,90.859219 16.1532654,89.4217916 15.3182307,88.4286316 C14.198865,87.0989527 12.4468385,86.1721595 10.6783285,86.1030599 C6.99233616,85.9593953 6.54565844,89.3249741 4.0949367,91.063785 C2.03522104,92.5273687 0.433581882,91.7946008 1.19123199,88.9213077 C1.809527,86.5809011 5.12707484,84.0898028 7.09694168,83.2707581 C9.76564295,82.1620417 12.8451619,82.9775728 15.2071591,83.5889284 C16.5566308,83.9387206 16.830792,83.3870952 18.2972545,84.4567723 C19.8941915,85.6220957 19.4819334,86.7425238 21.8496116,87.4998864 C20.5363542,82.427509 17.8734551,80.3759933 13.6493116,78.5079623 C12.4125819,77.9610216 7.67255627,75.2239756 11.1123314,73.8095815 C11.9860935,73.4504198 16.4523462,75.5265303 17.3583008,75.9707976 C16.6185854,74.4088349 15.0865685,71.7213688 15.9842104,70.148475 C17.308498,67.8307112 19.2330959,69.6940575 19.730271,71.5921487 C19.9981829,68.0411331 17.8464603,62.9714884 13.763287,62.7450604 C11.4834592,62.6185731 9.14262534,67.628878 7.16521769,64.996067 C3.36588279,59.9510171 18.1321771,57.1944514 21.5613192,60.4944442 C21.943774,57.4376663 23.7571524,54.1197154 22.3890054,51.3693961 C20.9020846,48.3856217 19.1118632,47.2226407 18.6111593,43.6353185 C18.3438318,41.7216116 18.7294809,35.5639414 22.017351,38.8436337 C23.1404237,39.9656235 22.7491426,42.3411654 23.8253733,43.8305151 C24.378271,44.5964663 25.4350389,45.6056325 26.2928172,45.9077967 C26.8597232,40.8604044 25.7628153,35.687696 23.3441752,31.4035222 C22.4173261,29.7638712 19.6293173,21.8322547 24.3487748,24.0297774 C25.8867201,24.7465391 25.4417603,27.8938883 26.6642795,29.0186108 C27.3301947,29.6315279 33.9115906,32.848367 34.9351609,32.1593232 C35.6651905,31.6682087 37.6814572,26.1886512 38.2998862,25.2263323 C39.0417626,24.0719399 42.4186453,18.1910583 43.6123112,22.3561622 C44.2482173,24.5790605 41.0431153,26.9417195 41.8428337,29.7357629 C43.310101,28.5232019 45.1988562,27.6534061 46.1779169,25.8763368 C46.7758614,24.7926055 47.2109167,18.4409099 50.1948883,21.4906608 C50.6468605,18.7543956 50.3931233,16.0052474 50.0116201,13.3177814 C49.6590375,10.8387852 47.8009276,3.86128948 51.3078111,2.86461591 C54.8879763,1.84842269 53.781581,6.23526987 53.6920659,8.39570525 C53.5723002,11.2974971 54.7243438,16.0478003 57.1484939,17.9212967 C58.9543722,19.318904 58.3962141,19.1568908 59.9693808,17.0979577 C61.2224184,15.460649 62.1474037,13.4950198 62.9428241,11.5742858 C63.4388415,10.377731 63.8604755,9.23622158 63.9388761,7.95573223 C64.0256621,6.54407081 62.5963925,4.71468878 63.8882057,3.47753307 C68.4061862,-0.841776108 67.3001674,13.2963097 66.8533479,14.7153886 L67.1277802,14.3696025 C69.5621201,11.3036027 72.2796963,8.00664659 76.3331882,10.4628367 C76.9137424,7.69455926 76.4475113,-0.492764683 81.1879964,0.0233349851 C85.0314735,0.441445987 81.4218191,3.79726501 80.7256589,5.08595261 C79.876509,6.65923677 80.3338947,8.84621888 80.0771587,10.6065013 C83.364323,9.74958849 82.7941498,9.19327834 83.5854252,6.15758165 C83.8958015,4.9680539 84.7804466,2.10647253 86.0261697,1.61691959 C90.9097688,-0.301081675 87.8388134,6.00571874 87.4245062,7.76092608 C90.1353523,7.6410754 93.1402627,11.9174413 95.6691727,9.75271164 C97.031157,8.58855944 96.1010516,5.40060944 98.2500992,4.75060494 C99.9590183,4.23411488 100.663044,6.16656069 100.304676,7.66059506 C100.877713,7.60828238 102.885296,7.799575 103.355021,8.20948774 C104.312204,9.04610014 103.680648,10.8501066 104.381766,11.3369268 C106.402711,12.7415612 112.701004,8.10642397 114.282756,6.69671451 C115.532497,5.5840942 120.275192,-1.30204956 121.855094,2.8653967 C122.399415,4.30399525 119.848493,8.69357518 119.467423,10.1091405 C118.919891,12.1450405 118.138071,14.7079712 118.647561,16.7751026 C119.599928,15.6019713 121.293397,13.448563 121.988704,12.004499 C122.708203,10.5112454 122.329503,8.38945896 123.682122,7.11833905 C129.125524,2.01512054 126.706116,13.3220757 126.762486,14.9351799 C128.507084,14.2133431 130.456777,14.0782671 131.680174,15.6730229 C132.817064,17.1557359 131.646423,18.2285361 132.745372,19.2693241 C135.152043,16.9117402 129.921887,7.49233563 136.714154,7.77771298 C138.176249,7.83939509 139.521287,8.64672801 138.699701,10.5498943 C138.200031,11.7078002 137.073558,10.9742516 136.520803,12.0087933 C135.29832,14.3004008 137.763741,20.0192692 137.555716,22.7360147 C140.091904,22.4795265 140.175628,20.6196938 140.789049,18.7364375 C141.471891,16.6443209 142.95772,13.6238495 145.2945,16.2125461 C146.663012,17.7307849 145.315305,22.3600662 145.407913,24.5603216 C145.468923,26.0067281 145.57044,27.4527441 145.655991,28.8975889 C146.966535,28.2315783 148.695236,24.958913 150.755804,27.2056252 C151.717562,28.2546115 149.878539,32.2772219 150.985494,32.7702884 C151.481865,31.2813291 151.173373,26.8456828 152.06891,25.5866651 C154.318536,22.4287754 155.459059,27.1091981 155.331481,28.8503513 C155.102123,31.9875502 151.880955,36.8237399 156.546177,36.7183337 C160.604934,36.6265913 158.858129,32.1374612 159.703512,29.2516754 C160.195301,27.5757179 161.389659,24.7192116 163.546466,26.0840259 C165.31836,27.2060156 164.114962,28.45176 163.920134,29.8505384 C163.549887,32.5063826 163.413049,35.0454993 163.186097,37.7423348 C166.575417,35.355081 166.819045,40.5238856 166.669221,42.5269926 C166.529338,44.4051737 164.602506,51.1718572 166.081721,51.4935411 C166.456472,51.5751333 167.767833,50.323533 168.576831,50.3754553 C170.198398,50.4792998 170.861461,51.5731813 170.637754,53.3037939 C170.392027,55.207741 165.620359,59.6336275 167.354151,61.6554733 C167.481496,61.8046035 170.125896,61.5734908 170.302082,61.4622287 C171.519076,60.6935447 172.07606,58.1758997 172.440664,56.6162793 C172.918922,54.5725714 171.724815,48.2755308 175.118415,49.6165311 C177.605245,50.5995409 176.170088,56.1298495 175.629329,58.1778516 C174.740084,61.5524095 171.737261,64.1977131 172.525841,67.608968 C172.993447,66.1289878 174.690293,61.8139729 176.465593,64.9570277 C177.190719,66.2433729 175.978715,68.6739603 175.522623,70.0032488 C174.992708,71.5499862 172.923099,74.6707886 172.991008,76.2507095 C173.095791,78.6883239 173.199533,76.9046179 175.238294,78.4419859 C175.729666,76.7176196 175.988608,73.3450137 176.919931,72.0153348 C178.355898,69.967723 180.162561,70.057123 180.708517,72.5829664 C181.079608,74.3018671 178.635221,81.0771393 177.758771,82.7050785 C178.870779,81.7013778 182.244616,77.9719526 183.551013,80.6153042 C184.275583,82.0835727 183.373237,82.3806618 182.804663,83.2477249 C181.122531,85.8176826 175.17003,88.2904324 175.591269,91.6482034 C177.383839,90.9736042 181.203002,90.8666365 180.67198,94.0499017 C180.211017,96.8166176 176.930155,95.9749301 175.237767,96.9915137 C177.112955,96.5335826 181.952817,95.619282 182.515816,98.6011044 C183.230278,102.394554 177.79234,101.136708 175.950562,101.597371 C177.22313,104.1482 179.717195,106.166532 182.208315,107.158911 C183.193837,107.552037 185.137049,107.742159 185.67495,108.813788 C187.90383,113.244749 177.994834,111.484467 176.467109,113.140514 C177.396605,114.146948 179.037272,115.426656 177.742225,117.034295 C181.381252,118.556438 182.806036,121.517569 183.364612,125.543693 C183.618438,127.375418 183.243976,134.318949 180.207508,130.116368 C179.400215,129.001405 179.612624,126.110544 179.140297,124.762907 C178.501504,122.944066 176.178665,119.993084 173.890225,120.718825 C170.89879,121.667871 178.111059,127.812658 177.404406,130.612948 C176.063377,135.941423 173.298856,129.431618 172.206,129.014288 C172.731819,131.833707 169.622984,135.99803 170.567003,137.868403 C170.962455,138.651922 172.851533,139.287873 173.478827,140.295477 C174.059985,141.228907 175.050449,143.548232 174.928748,144.633135 C174.419542,149.169502 172.103838,145.707106 171.222117,143.992109 C170.13091,141.873446 170.263178,141.804346 167.966582,141.555666 C166.462257,141.392482 163.413669,141.041128 162.554381,142.176001 C162.683813,142.004354 161.891083,147.181871 161.855079,147.132842 L161.859064,147.240034 C161.960642,148.14665 163.419895,148.63721 162.95061,150.127527 C162.495834,151.571982 160.792178,152.307873 159.706723,151.14333 C159.340419,153.270972 159.678802,152.06661 161.181077,153.276828 C161.993578,153.931908 164.07308,154.203231 163.10825,156.053694 C162.056295,158.072417 158.584855,155.129634 157.398137,155.187802 C155.254913,155.292428 154.108583,157.895569 152.848916,159.689035 C151.308063,161.884996 149.356221,162.768846 147.651918,164.434653 C148.428013,164.951924 159.522305,167.44029 155.089787,169.887664 C153.172487,170.947581 147.387236,168.73171 145.642135,167.571852 C145.563369,171.165421 146.500469,171.843533 148.024863,174.616105 C148.803043,176.034013 150.534993,182 147.428222,182 C145.247,182 146.012313,178.819858 145.478876,177.405464 C145.140008,176.50834 144.414366,176.040649 143.956619,175.261034 C142.191903,172.260864 142.862922,169.494538 142.311896,166.167999 C142.166089,165.289848 141.96453,164.47122 141.755564,163.663497 C147.992529,155.385796 151.985725,145.321469 152.83162,134.375034 C157.488357,132.807518 160.867612,128.459787 160.9962,123.304975 L161,123 L161,110 C161,104.964745 157.898745,100.653827 153.502126,98.8731363 C152.970496,99.2477013 152.23272,98.8741774 152,98.0318338 C152.46274,96.526107 148.704055,70.1780326 139,63.1563695 C135.42084,60.7446886 116.408606,60.5635409 97.3126144,60.5504522 L96.7334726,60.5501156 C77.6219937,60.5410694 58.5820398,60.7427484 55,63.1563695 C45.2959449,70.1780326 41.5372601,96.526107 42,98.0318338 C41.7672256,98.8743746 41.0291589,99.2478761 40.4975878,98.8743384 C36.190098,100.618022 33.1261238,104.791345 33.0037999,109.695025 L33,110 L33,123 C33,128.288115 36.4205527,132.777317 41.1698127,134.37576 C42.1997823,147.718972 47.9073425,159.751229 56.6545296,168.836196 L56.6830963,168.772 Z M23.1596563,138.89736 L23.1440963,138.91 L23.232183,138.884943 C23.3239632,138.857597 23.4100831,138.83135 23.4900552,138.806518 C23.4992034,138.674811 23.3760267,138.718592 23.1596563,138.89736 Z" id="short_dreads_2_path-1" />
    </defs>
    <g id="short_dreads_2_Top/Short-Hair/Dreads-02" stroke="none" stroke-width="1" fill="none" fill-rule="evenodd" transform="translate(-1 0)">
        <g id="short_dreads_2_Hair" transform="translate(36.000000, 0.000000)">
            <mask id="short_dreads_2_mask-2" fill="white">
                <use xlink:href="#short_dreads_2_path-1" />
            </mask>
            <use id="short_dreads_2_Dreads" fill="#2E3257" xlink:href="#short_dreads_2_path-1" />
            <g id="short_dreads_2_Hair-Color" mask="url(#short_dreads_2_mask-2)" fill="#A55728">
                <g transform="translate(-35.000000, 0.000000)" id="short_dreads_2_Color">
                    <rect x="0" y="0" width="264" height="280" />
                </g>
            </g>
        </g>
        <g id="short_dreads_2_Facial-Hair" transform="translate(49.000000, 72.000000)"><defs>
        <path d="M84.5044337,93.8410391 C72.9930718,94.2191416 67.8580835,99.7213834 63.9909333,94.1296214 C61.0884259,89.9323547 62.3028943,82.8739117 65.014944,78.9027173 C68.8738581,73.2512381 74.1088724,75.9847769 79.9622738,75.3400279 C81.5538829,75.1648137 83.1526985,74.7228407 84.5044337,74 C85.856169,74.7228407 87.4546414,75.1648137 89.0462504,75.3400279 C94.899995,75.9847769 100.134666,73.2512381 103.993923,78.9027173 C106.70563,82.8739117 107.920098,89.9323547 105.017591,94.1296214 C101.150441,99.7213834 96.0157956,93.4629366 84.5044337,93.8410391 Z M140.39109,26 C136.966521,40.0748212 135.393023,54.4337754 132.909944,68.6711471 C132.392536,71.6390145 131.826063,74.5963095 131.224594,77.5496398 C131.098329,78.1697764 130.973781,80.4725746 130.362704,80.7643064 C128.511632,81.6484223 124.739149,76.9466834 123.730409,75.8851496 C121.196893,73.219256 118.684993,70.5292442 115.599415,68.437233 C109.364783,64.2102603 102.065485,61.7108818 94.4700836,61.117837 C91.2922091,60.8693859 86.9951134,61.3025234 84.000116,63.1104016 C81.0051185,61.3025234 76.7080229,60.8693859 73.5298053,61.117837 C65.9344039,61.7108818 58.6351055,64.2102603 52.4004739,68.437233 C49.3148957,70.5292442 46.8033387,73.219256 44.2694796,75.8851496 C43.2607395,76.9466834 39.4882573,81.6484223 37.6371849,80.7643064 C37.0261079,80.4725746 36.9015594,78.1697764 36.7752954,77.5496398 C36.1738255,74.5963095 35.6073527,71.6390145 35.0899445,68.6711471 C32.6072086,54.4337754 31.0337113,40.0748212 27.6091415,26 C26.6127533,26 25.7385119,44.7478165 25.6273446,46.4945731 C25.174784,53.5889755 24.6463963,60.5254529 25.3216346,67.6261326 C26.485803,79.8749043 27.6993791,95.2339402 37.032627,104.58753 C45.4659003,113.039493 57.7103052,114.806417 68.2713185,120.141327 C69.631059,120.828202 71.4347824,121.676306 73.3798667,122.37111 C75.4289129,123.934171 79.4926946,125 84.1740722,125 C89.0846465,125 93.3155222,123.827456 95.2540874,122.137856 C96.9548781,121.49261 98.5180822,120.752874 99.7285704,120.141327 C110.288776,114.805245 122.533989,113.039493 130.967262,104.58753 C140.30051,95.2339402 141.514086,79.8749043 142.678597,67.6261326 C143.353493,60.5254529 142.825105,53.5889755 142.372887,46.4945731 C142.261377,44.7478165 141.387136,26 140.39109,26 Z" id="beard_medium_path-1" />
    </defs>
    <g id="beard_medium_Facial-Hair/Beard-Medium" stroke="none" stroke-width="1" fill="none" fill-rule="evenodd">
        <mask id="beard_medium_mask-2" fill="white">
            <use xlink:href="#beard_medium_path-1" />
        </mask>
        <use id="beard_medium_Beardness" fill="#252E32" xlink:href="#beard_medium_path-1" />
        <g id="beard_medium_Facial-Hair-Color" mask="url(#beard_medium_mask-2)" fill="#724133">
            <rect id="beard_medium_Color" x="0" y="0" width="168" height="152" />
        </g>
    </g>
</g>
        <g id="short_dreads_2_Accessory" transform="translate(62.000000, 85.000000)" />
    </g>
</g>
    </g>
</svg>